<svg width="57" height="59" viewBox="0 0 57 59" fill="none" xmlns="http://www.w3.org/2000/svg"> <circle cx="36.375" cy="32.8516" r="20" fill="#F15822"></circle> <path d="M44.6441 19.5428L41.2981 19.2513C40.8247 17.0875 39.9866 15.0587 38.7969 13.2016L40.9541 10.6338C41.2672 10.2616 41.2437 9.71219 40.8987 9.36813L36.9219 5.39031C36.5778 5.04625 36.0294 5.02281 35.6553 5.335L33.0875 7.49219C31.2312 6.30344 29.2006 5.46437 27.0378 4.99187L26.7462 1.64594C26.7041 1.16031 26.2991 0.789062 25.8125 0.789062H20.1875C19.7009 0.789062 19.2959 1.16031 19.2537 1.64594L18.9622 4.99187C16.7984 5.46437 14.7687 6.30344 12.9125 7.49219L10.3447 5.33594C9.97156 5.02375 9.42312 5.04719 9.07812 5.39125L5.10125 9.36906C4.75719 9.71313 4.73281 10.2625 5.04594 10.6347L7.20312 13.2025C6.01344 15.0597 5.17531 17.0894 4.70188 19.2522L1.35594 19.5437C0.87125 19.585 0.5 19.99 0.5 20.4766V26.1016C0.5 26.5881 0.87125 26.9931 1.35594 27.0353L4.70188 27.3269C5.17531 29.4906 6.01437 31.5194 7.20312 33.3766L5.04594 35.9444C4.73281 36.3166 4.75625 36.8669 5.10125 37.2109L9.07812 41.1878C9.42125 41.53 9.96969 41.5563 10.3447 41.2431L12.9125 39.0859C13.9175 39.7291 14.9853 40.2747 16.0934 40.7106L16.7816 38.9678C15.5853 38.4944 14.4416 37.8822 13.3831 37.1462C13.0334 36.9053 12.5684 36.9269 12.2441 37.1988L9.79625 39.2547L7.03531 36.4937L9.09125 34.0459C9.36312 33.7216 9.38469 33.2547 9.14375 32.9078C7.75906 30.9156 6.83844 28.6891 6.40719 26.2891C6.33219 25.8719 5.98719 25.5578 5.56625 25.5213L2.375 25.2419V21.3362L5.56531 21.0588C5.98625 21.0222 6.33125 20.7072 6.40625 20.2909C6.8375 17.8909 7.75812 15.6644 9.14281 13.6731C9.38469 13.3253 9.36219 12.8594 9.09031 12.535L7.03438 10.0862L9.79531 7.32438L12.2431 9.38031C12.5684 9.65312 13.0334 9.67375 13.3822 9.43281C15.3725 8.04813 17.6 7.12844 20.0009 6.69719C20.4172 6.62219 20.7322 6.27719 20.7688 5.85531L21.0472 2.66406H24.9528L25.2303 5.85437C25.2669 6.27625 25.5819 6.62125 25.9981 6.69625C28.3991 7.1275 30.6266 8.04812 32.6169 9.43187C32.9656 9.67281 33.4306 9.65219 33.7559 9.37938L36.2037 7.32344L38.9647 10.0853L36.9087 12.5341C36.6369 12.8584 36.6153 13.3244 36.8562 13.6722C38.2409 15.6634 39.1616 17.89 39.5928 20.29C39.6678 20.7072 40.0128 21.0213 40.4338 21.0578L43.625 21.3362V25.2419L40.4347 25.5194C40.0138 25.5559 39.6688 25.8709 39.5938 26.2872C39.1625 28.6872 38.2419 30.9137 36.8572 32.9059C36.6153 33.2528 36.6378 33.7197 36.9097 34.0441L38.9656 36.4919L36.2047 39.2528L33.7569 37.1969C33.4316 36.925 32.9666 36.9044 32.6178 37.1444C31.5594 37.8803 30.4156 38.4925 29.2194 38.9659L29.9075 40.7088C31.0156 40.2719 32.0825 39.7262 33.0884 39.0841L35.6562 41.2412C35.8325 41.3884 36.0453 41.4606 36.26 41.4606C36.5009 41.4606 36.7409 41.3678 36.9228 41.1859L40.8997 37.2091C41.2437 36.8659 41.2681 36.3156 40.955 35.9425L38.7969 33.3766C39.9856 31.5194 40.8247 29.4897 41.2981 27.3269L44.6441 27.0353C45.1288 26.9931 45.5 26.5881 45.5 26.1016V20.4766C45.5 19.99 45.1288 19.585 44.6441 19.5428V19.5428Z" fill="#132050"></path> <path d="M26.75 40.1641H25.8125V38.0153C32.7425 36.6944 38 30.5978 38 23.2891C38 15.0184 31.2706 8.28906 23 8.28906C14.7294 8.28906 8 15.0184 8 23.2891C8 30.5978 13.2575 36.6944 20.1875 38.0153V40.1641H19.25C18.7316 40.1641 18.3125 40.5831 18.3125 41.1016V57.9766C18.3125 58.495 18.7316 58.9141 19.25 58.9141H26.75C27.2684 58.9141 27.6875 58.495 27.6875 57.9766V41.1016C27.6875 40.5831 27.2684 40.1641 26.75 40.1641ZM9.875 23.2891C9.875 16.0516 15.7625 10.1641 23 10.1641C30.2375 10.1641 36.125 16.0516 36.125 23.2891C36.125 30.5266 30.2375 36.4141 23 36.4141C15.7625 36.4141 9.875 30.5266 9.875 23.2891ZM22.0625 38.2413C22.3737 38.2609 22.6831 38.2891 23 38.2891C23.3169 38.2891 23.6263 38.2609 23.9375 38.2413V40.1641H22.0625V38.2413ZM25.8125 57.0391H20.1875V42.0391H25.8125V57.0391Z" fill="#132050"></path> <path d="M23.9375 31.7266V29.7184C25.5509 29.2994 26.75 27.8434 26.75 26.1016C26.75 24.0334 25.0681 22.3516 23 22.3516C21.9659 22.3516 21.125 21.5106 21.125 20.4766C21.125 19.4425 21.9659 18.6016 23 18.6016C24.0341 18.6016 24.875 19.4425 24.875 20.4766H26.75C26.75 18.7347 25.5509 17.2788 23.9375 16.8597V14.8516H22.0625V16.8597C20.4491 17.2788 19.25 18.7347 19.25 20.4766C19.25 22.5447 20.9319 24.2266 23 24.2266C24.0341 24.2266 24.875 25.0675 24.875 26.1016C24.875 27.1356 24.0341 27.9766 23 27.9766C21.9659 27.9766 21.125 27.1356 21.125 26.1016H19.25C19.25 27.8434 20.4491 29.2994 22.0625 29.7184V31.7266H23.9375Z" fill="#132050"></path> <path d="M23 12.0391C16.7966 12.0391 11.75 17.0856 11.75 23.2891H13.625C13.625 18.1197 17.8306 13.9141 23 13.9141V12.0391Z" fill="#F15822"></path> <path d="M23 34.5391C29.2034 34.5391 34.25 29.4925 34.25 23.2891H32.375C32.375 28.4584 28.1694 32.6641 23 32.6641V34.5391Z" fill="#132050"></path> </svg>