<svg width="58" height="58" viewBox="0 0 58 58" fill="none" xmlns="http://www.w3.org/2000/svg"> <circle cx="37.4956" cy="20.5" r="20" fill="#F15822"></circle> <path d="M33.394 40.2731C32.2094 40.2731 31.2456 39.439 31.2456 38.4137C31.2456 37.3883 32.2094 36.5541 33.394 36.5541C34.5787 36.5541 35.5425 37.3883 35.5425 38.4137C35.5425 38.9529 35.9798 39.3902 36.519 39.3902C37.0583 39.3902 37.4956 38.9529 37.4956 38.4137C37.4956 36.6241 36.1622 35.1194 34.3706 34.711V34.2031C34.3706 33.6639 33.9333 33.2266 33.394 33.2266C32.8548 33.2266 32.4175 33.6639 32.4175 34.2031V34.711C30.6259 35.1194 29.2925 36.6241 29.2925 38.4137C29.2925 40.5159 31.1324 42.2263 33.394 42.2263C34.5787 42.2263 35.5425 43.0604 35.5425 44.0858C35.5425 45.1112 34.5787 45.9454 33.394 45.9454C32.2094 45.9454 31.2456 45.1112 31.2456 44.0858C31.2456 43.5466 30.8083 43.1093 30.269 43.1093C29.7298 43.1093 29.2925 43.5466 29.2925 44.0858C29.2925 45.8754 30.6259 47.3801 32.4175 47.7885V48.2103C32.4175 48.7496 32.8548 49.1869 33.394 49.1869C33.9333 49.1869 34.3706 48.7496 34.3706 48.2103V47.7885C36.1622 47.3801 37.4956 45.8754 37.4956 44.0858C37.4956 41.9835 35.6557 40.2731 33.394 40.2731Z" fill="#132050"></path> <path d="M44.0901 34.4645C42.8144 32.4767 41.0172 30.8861 38.8927 29.8648C38.4064 29.631 37.8229 29.8357 37.5893 30.3218C37.3556 30.8079 37.5602 31.3913 38.0464 31.625C41.7486 33.4047 44.1407 37.2073 44.1407 41.3126C44.1407 43.0692 43.7077 44.8113 42.8886 46.3508C42.6353 46.8269 42.8159 47.4183 43.2921 47.6716C43.4382 47.7493 43.5952 47.7862 43.7499 47.7862C44.0993 47.7862 44.4373 47.5981 44.6129 47.2682C45.5817 45.4475 46.0938 43.388 46.0938 41.3126C46.0938 38.8751 45.4009 36.507 44.0901 34.4645Z" fill="#132050"></path> <path d="M34.929 28.6173L34.8633 28.6172C34.324 28.6172 33.8867 29.0544 33.8867 29.5937C33.8867 30.1331 34.324 30.5703 34.8633 30.5703L34.9198 30.5704C34.9214 30.5704 34.9229 30.5704 34.9245 30.5704C35.4617 30.5704 35.8984 30.1362 35.901 29.5984C35.9034 29.0591 35.4683 28.6198 34.929 28.6173Z" fill="#132050"></path> <path d="M28.7505 51C25.0483 49.2203 22.6562 45.4176 22.6562 41.3125C22.6562 39.5558 23.0893 37.8137 23.9083 36.2743C24.1616 35.7982 23.981 35.2068 23.5049 34.9535C23.0289 34.7002 22.4373 34.8807 22.1841 35.3569C21.2152 37.1777 20.7031 39.2371 20.7031 41.3125C20.7031 43.75 21.396 46.1179 22.7068 48.1606C23.9825 50.1484 25.7798 51.739 27.9043 52.7604C28.0407 52.826 28.1848 52.857 28.3267 52.857C28.6904 52.857 29.0394 52.653 29.2076 52.3034C29.4411 51.8172 29.2366 51.2337 28.7505 51Z" fill="#132050"></path> <path d="M31.9335 52.0549L31.877 52.0547C31.3352 52.0537 30.8984 52.4872 30.896 53.0267C30.8935 53.566 31.3288 54.0053 31.8681 54.0078L31.9335 54.008C32.4728 54.008 32.9101 53.5707 32.9101 53.0314C32.9101 52.4922 32.4728 52.0549 31.9335 52.0549Z" fill="#132050"></path> <path d="M37.8328 25.3132C37.714 25.03 37.5684 24.7632 37.399 24.5156H39.9413C42.4183 24.5156 44.4335 22.5004 44.4335 20.0234C44.4335 17.5465 42.4183 15.5312 39.9413 15.5312H32.121C32.6182 14.8084 32.9101 13.9339 32.9101 12.9922C32.9101 10.5152 30.8949 8.5 28.4179 8.5H4.49218C2.01523 8.5 0 10.5152 0 12.9922C0 15.4691 2.01523 17.4844 4.49218 17.4844H12.3125C11.8153 18.2072 11.5234 19.0817 11.5234 20.0234C11.5234 20.9651 11.8152 21.8396 12.3125 22.5625H9.76561C7.28866 22.5625 5.27343 24.5777 5.27343 27.0547C5.27343 28.4772 5.93886 29.7466 6.97411 30.5703C5.93886 31.3939 5.27343 32.6633 5.27343 34.0859C5.27343 35.5084 5.93886 36.7779 6.97411 37.6015C5.93886 38.4251 5.27343 39.6946 5.27343 41.1171C5.27343 42.5397 5.93886 43.8091 6.97411 44.6327C5.93886 45.4564 5.27343 46.7258 5.27343 48.1484C5.27343 50.6253 7.28866 52.6405 9.76561 52.6405H21.2744C24.3062 55.8834 28.6193 57.9141 33.3985 57.9141C42.5526 57.9141 50 50.4666 50 41.3125C50 33.6937 44.8408 27.2581 37.8328 25.3132ZM39.9413 17.4844C41.3414 17.4844 42.4804 18.6234 42.4804 20.0234C42.4804 21.4234 41.3414 22.5625 39.9413 22.5625H33.6913H16.0156C14.6155 22.5625 13.4765 21.4234 13.4765 20.0234C13.4765 18.6234 14.6155 17.4844 16.0156 17.4844H39.9413ZM4.49218 15.5312C3.09208 15.5312 1.95312 14.3922 1.95312 12.9922C1.95312 11.5922 3.09208 10.4531 4.49218 10.4531H28.4179C29.818 10.4531 30.957 11.5922 30.957 12.9922C30.957 14.3922 29.818 15.5312 28.4179 15.5312H4.49218ZM9.76561 24.5156H33.6913C34.0847 24.5156 34.4614 24.607 34.7993 24.7707C34.3373 24.7319 33.8703 24.711 33.3985 24.711C28.814 24.711 24.6578 26.5791 21.6505 29.5937H9.76561C8.36561 29.5937 7.22655 28.4546 7.22655 27.0547C7.22655 25.6547 8.36561 24.5156 9.76561 24.5156ZM9.76561 31.5468H19.9819C18.8733 33.0657 18.0162 34.7788 17.4718 36.6249H9.76561C8.36551 36.6249 7.22655 35.486 7.22655 34.0859C7.22655 32.6859 8.36551 31.5468 9.76561 31.5468ZM9.76561 38.5781H17.0234C16.8753 39.468 16.7969 40.3812 16.7969 41.3125C16.7969 42.108 16.8545 42.8903 16.9632 43.6562H9.76561C8.36551 43.6562 7.22655 42.5172 7.22655 41.1171C7.22655 39.717 8.36551 38.5781 9.76561 38.5781ZM9.76561 50.6874C8.36551 50.6874 7.22655 49.5485 7.22655 48.1484C7.22655 46.7483 8.36551 45.6093 9.76561 45.6093H17.3619C17.8547 47.4465 18.6551 49.1587 19.7049 50.6874H9.76561ZM33.3985 55.9609C25.3213 55.9609 18.7501 49.3897 18.7501 41.3125C18.7501 33.2354 25.3213 26.6641 33.3985 26.6641C41.4756 26.6641 48.0469 33.2354 48.0469 41.3125C48.0469 49.3897 41.4756 55.9609 33.3985 55.9609Z" fill="#132050"></path> </svg>