<svg width="59" height="54" viewBox="0 0 59 54" fill="none" xmlns="http://www.w3.org/2000/svg"> <circle cx="32" cy="27" r="27" fill="#F7F6FC"></circle> <g clip-path="url(#clip0)"> <path d="M8.51875 22.0573L8.51875 22.0587C8.53104 26.0298 10.1502 28.1604 11.8293 30.37L11.8332 30.3751C13.1368 32.0906 14.444 33.8155 14.8899 36.2624L14.9199 36.4266H15.0867H20.9141H21.081L21.1109 36.2624C21.4301 34.5111 22.1913 33.1271 23.0766 31.8535C23.8122 32.2301 24.5958 32.5259 25.4154 32.7294C24.2396 34.3297 23.3627 35.8262 23.3627 38.0838V41.7812C23.3627 43.9971 21.5595 45.8 19.3439 45.8H16.6564C14.4405 45.8 12.6376 43.9971 12.6376 41.7812V38.0838C12.6376 35.4211 11.4164 33.8141 9.92513 31.8517L9.91235 31.8349C8.12338 29.4807 6.12857 26.8532 6.10652 22.0932V22.0139C6.14955 15.4925 11.4685 10.2 18 10.2C20.2232 10.2 22.3054 10.8134 24.0873 11.8796C23.1691 12.2376 22.3105 12.7158 21.5314 13.2949C20.4393 12.8551 19.2474 12.6125 18 12.6125C12.7839 12.6125 8.53839 16.8457 8.51875 22.0573ZM20.9499 39.0391V38.8391H20.7499H15.2498H15.0498V39.0391V41.7812C15.0498 42.6671 15.7703 43.3875 16.6561 43.3875H19.3436C20.2297 43.3875 20.9499 42.667 20.9499 41.7812V39.0391ZM2.96406 23.3H0.2V20.8875H2.96406V23.3ZM1.56417 29.1436L4.19107 27.8206L5.27621 29.9751L2.64955 31.2981L1.56417 29.1436ZM2.64931 12.71L5.2059 13.9976L4.12075 16.1521L1.56415 14.8648L2.64931 12.71Z" fill="#132050" stroke="white" stroke-width="0.4"></path> <path d="M30.6873 24.6986L30.6084 24.8321L30.7181 24.9418L32.3622 26.5859L30.6562 28.2919L29.0121 26.6478L28.9024 26.5381L28.7689 26.617C28.3371 26.8723 27.8683 27.0703 27.3718 27.1987L27.2219 27.2375V27.3923V29.6906H24.8094V27.3923V27.2375L24.6594 27.1987C24.163 27.0703 23.6942 26.8723 23.2623 26.617L23.1288 26.5381L23.0191 26.6478L21.375 28.2919L19.669 26.5859L21.3132 24.9418L21.4229 24.8321L21.3439 24.6986C21.0886 24.2668 20.8906 23.798 20.7622 23.3015L20.7235 23.1516H20.5686H18.2V20.7391H20.5686H20.7235L20.7622 20.5891C20.8906 20.0926 21.0886 19.6238 21.3439 19.192L21.4229 19.0585L21.3132 18.9488L19.669 17.3047L21.375 15.5987L23.0191 17.2429L23.1288 17.3525L23.2623 17.2736C23.6942 17.0183 24.163 16.8203 24.6594 16.6919L24.8094 16.6532V16.4983V14.2H27.2219V16.4983V16.6532L27.3718 16.6919C27.8683 16.8203 28.3371 17.0183 28.7689 17.2736L28.9024 17.3525L29.0121 17.2429L30.6562 15.5987L32.3622 17.3047L30.7181 18.9488L30.6084 19.0585L30.6873 19.192C30.9426 19.6238 31.1407 20.0926 31.269 20.5891L31.3078 20.7391H31.4626H33.7609V23.1516H31.4626H31.3078L31.269 23.3015C31.1407 23.798 30.9426 24.2668 30.6873 24.6986Z" fill="#F15822" stroke="white" stroke-width="0.4"></path> </g> <defs> <clipPath id="clip0"> <rect y="10" width="36" height="36" fill="white"></rect> </clipPath> </defs> </svg>