<svg width="59" height="54" viewBox="0 0 59 54" fill="none" xmlns="http://www.w3.org/2000/svg"> <circle cx="32" cy="27" r="27" fill="#F7F6FC"></circle> <path fill-rule="evenodd" clip-rule="evenodd" d="M10.5408 32.5911C6.10538 34.4207 2.86542 38.5592 2.31822 43.5092C2.26416 43.9983 2.23638 44.4952 2.23633 44.9987L2.23633 45.0001H29.0716V44.9989C29.0715 44.4954 29.0438 43.9983 28.9897 43.5092C28.4505 38.6319 25.2971 34.5424 20.9618 32.6732C20.527 33.0737 20.0456 33.4244 19.5267 33.7161C23.7604 35.1688 26.9183 38.9372 27.4885 43.5092H3.81945C4.39755 38.8732 7.63637 35.0635 11.9596 33.6565C11.4454 33.3567 10.9694 32.9986 10.5408 32.5911Z" fill="#132050"></path> <path d="M10.5408 32.5911L10.7131 32.4099L10.5955 32.2981L10.4455 32.36L10.5408 32.5911ZM2.31822 43.5092L2.06973 43.4817L2.31822 43.5092ZM2.23633 44.9987L1.98633 44.9987V44.9987L2.23633 44.9987ZM2.23633 45.0001L1.98633 45L1.98632 45.2501H2.23633V45.0001ZM29.0716 45.0001V45.2501H29.3216V45.0001H29.0716ZM29.0716 44.9989H29.3216V44.9989L29.0716 44.9989ZM28.9897 43.5092L29.2382 43.4817L28.9897 43.5092ZM20.9618 32.6732L21.0608 32.4436L20.9117 32.3794L20.7924 32.4893L20.9618 32.6732ZM19.5267 33.7161L19.4042 33.4982L18.9178 33.7715L19.4455 33.9526L19.5267 33.7161ZM27.4885 43.5092V43.7592H27.7716L27.7365 43.4783L27.4885 43.5092ZM3.81945 43.5092L3.57137 43.4783L3.53634 43.7592H3.81945V43.5092ZM11.9596 33.6565L12.0369 33.8942L12.5675 33.7215L12.0855 33.4405L11.9596 33.6565ZM10.4455 32.36C5.92775 34.2235 2.62721 38.4387 2.06973 43.4817L2.5667 43.5367C3.10362 38.6796 6.28301 34.6178 10.6362 32.8222L10.4455 32.36ZM2.06973 43.4817C2.01466 43.9799 1.98638 44.486 1.98633 44.9987L2.48633 44.9987C2.48638 44.5045 2.51365 44.0166 2.5667 43.5367L2.06973 43.4817ZM1.98633 44.9987L1.98633 45L2.48633 45.0001L2.48633 44.9987L1.98633 44.9987ZM2.23633 45.2501H29.0716V44.7501H2.23633V45.2501ZM29.3216 45.0001V44.9989H28.8216V45.0001H29.3216ZM29.3216 44.9989C29.3215 44.4862 29.2933 43.98 29.2382 43.4817L28.7412 43.5367C28.7943 44.0167 28.8215 44.5046 28.8216 44.9989L29.3216 44.9989ZM29.2382 43.4817C28.6889 38.5128 25.4765 34.3475 21.0608 32.4436L20.8628 32.9028C25.1178 34.7373 28.2122 38.751 28.7412 43.5367L29.2382 43.4817ZM20.7924 32.4893C20.3718 32.8768 19.9061 33.216 19.4042 33.4982L19.6492 33.934C20.1852 33.6328 20.6823 33.2706 21.1312 32.857L20.7924 32.4893ZM27.7365 43.4783C27.1544 38.8097 23.9302 34.9627 19.6078 33.4796L19.4455 33.9526C23.5907 35.3749 26.6823 39.0647 27.2404 43.5401L27.7365 43.4783ZM3.81945 43.7592H27.4885V43.2592H3.81945V43.7592ZM11.8822 33.4188C7.46846 34.8553 4.16168 38.7444 3.57137 43.4783L4.06753 43.5401C4.63342 39.0021 7.80428 35.2718 12.0369 33.8942L11.8822 33.4188ZM12.0855 33.4405C11.5881 33.1506 11.1277 32.8041 10.7131 32.4099L10.3686 32.7722C10.8111 33.193 11.3026 33.5629 11.8336 33.8725L12.0855 33.4405Z" fill="#132050"></path> <path fill-rule="evenodd" clip-rule="evenodd" d="M15.8266 30.7079C19.2154 30.7079 21.9626 27.9608 21.9626 24.5719C21.9626 21.1831 19.2154 18.4359 15.8266 18.4359C12.4377 18.4359 9.69055 21.1831 9.69055 24.5719C9.69055 27.9608 12.4377 30.7079 15.8266 30.7079ZM15.8266 32.1988C20.0388 32.1988 23.4534 28.7841 23.4534 24.5719C23.4534 20.3597 20.0388 16.9451 15.8266 16.9451C11.6144 16.9451 8.19971 20.3597 8.19971 24.5719C8.19971 28.7841 11.6144 32.1988 15.8266 32.1988Z" fill="#132050" stroke="#132050" stroke-width="0.5"></path> <g clip-path="url(#clip0)"> <path d="M5.83392 9.71419C5.9513 9.59979 5.99274 9.4319 5.94211 9.27583C5.89136 9.11976 5.75917 9.00835 5.59677 8.98471L4.15285 8.7749C4.09135 8.76595 4.03822 8.72738 4.01075 8.67161L3.36522 7.36334C3.29273 7.21635 3.14562 7.125 2.98167 7.125C2.81784 7.125 2.67072 7.21635 2.59824 7.36334L1.95258 8.67173C1.92512 8.7275 1.87186 8.76607 1.81036 8.77502L0.366445 8.98483C0.204166 9.00835 0.071858 9.11988 0.0211083 9.27595C-0.029522 9.43202 0.0119137 9.59991 0.129295 9.71431L1.17402 10.7326C1.21856 10.7761 1.23898 10.8387 1.22847 10.8998L0.982009 12.3378C0.960157 12.4643 0.993353 12.5875 1.07527 12.6845C1.20256 12.8358 1.42479 12.8819 1.60247 12.7885L2.89378 12.1096C2.94775 12.0813 3.0157 12.0815 3.06955 12.1096L4.36099 12.7885C4.4238 12.8216 4.49079 12.8383 4.55992 12.8383C4.68614 12.8383 4.80579 12.7822 4.88807 12.6845C4.9701 12.5875 5.00318 12.4641 4.98133 12.3378L4.73474 10.8998C4.72423 10.8386 4.74465 10.7761 4.78919 10.7326L5.83392 9.71419Z" fill="#F15822"></path> </g> <g clip-path="url(#clip1)"> <path d="M14.0336 9.71419C14.151 9.59979 14.1924 9.4319 14.1418 9.27583C14.0911 9.11976 13.9589 9.00835 13.7965 8.98471L12.3526 8.7749C12.2911 8.76595 12.2379 8.72738 12.2105 8.67161L11.5649 7.36334C11.4924 7.21635 11.3453 7.125 11.1814 7.125C11.0175 7.125 10.8704 7.21635 10.7979 7.36334L10.1523 8.67173C10.1248 8.7275 10.0716 8.76607 10.0101 8.77502L8.56615 8.98483C8.40387 9.00835 8.27157 9.11988 8.22082 9.27595C8.17019 9.43202 8.21162 9.59991 8.329 9.71431L9.37373 10.7326C9.41827 10.7761 9.43869 10.8387 9.42818 10.8998L9.18172 12.3378C9.15986 12.4643 9.19306 12.5875 9.27498 12.6845C9.40227 12.8358 9.62449 12.8819 9.80218 12.7885L11.0935 12.1096C11.1475 12.0813 11.2154 12.0815 11.2693 12.1096L12.5607 12.7885C12.6235 12.8216 12.6905 12.8383 12.7596 12.8383C12.8858 12.8383 13.0055 12.7822 13.0878 12.6845C13.1698 12.5875 13.2029 12.4641 13.181 12.3378L12.9344 10.8998C12.9239 10.8386 12.9444 10.7761 12.9889 10.7326L14.0336 9.71419Z" fill="#132050"></path> </g> <g clip-path="url(#clip2)"> <path d="M22.2332 9.71419C22.3506 9.59979 22.392 9.4319 22.3414 9.27583C22.2906 9.11976 22.1585 9.00835 21.9961 8.98471L20.5521 8.7749C20.4906 8.76595 20.4375 8.72738 20.41 8.67161L19.7645 7.36334C19.692 7.21635 19.5449 7.125 19.381 7.125C19.2171 7.125 19.07 7.21635 18.9975 7.36334L18.3519 8.67173C18.3244 8.7275 18.2712 8.76607 18.2097 8.77502L16.7657 8.98483C16.6035 9.00835 16.4712 9.11988 16.4204 9.27595C16.3698 9.43202 16.4112 9.59991 16.5286 9.71431L17.5733 10.7326C17.6179 10.7761 17.6383 10.8387 17.6278 10.8998L17.3813 12.3378C17.3594 12.4643 17.3926 12.5875 17.4746 12.6845C17.6019 12.8358 17.8241 12.8819 18.0018 12.7885L19.2931 12.1096C19.347 12.0813 19.415 12.0815 19.4688 12.1096L20.7603 12.7885C20.8231 12.8216 20.8901 12.8383 20.9592 12.8383C21.0854 12.8383 21.2051 12.7822 21.2874 12.6845C21.3694 12.5875 21.4025 12.4641 21.3806 12.3378L21.134 10.8998C21.1235 10.8386 21.1439 10.7761 21.1885 10.7326L22.2332 9.71419Z" fill="#132050"></path> </g> <g clip-path="url(#clip3)"> <path d="M30.4329 9.71419C30.5503 9.59979 30.5917 9.4319 30.5411 9.27583C30.4904 9.11976 30.3582 9.00835 30.1958 8.98471L28.7519 8.7749C28.6904 8.76595 28.6372 8.72738 28.6098 8.67161L27.9642 7.36334C27.8917 7.21635 27.7446 7.125 27.5807 7.125C27.4168 7.125 27.2697 7.21635 27.1972 7.36334L26.5516 8.67173C26.5241 8.7275 26.4709 8.76607 26.4094 8.77502L24.9654 8.98483C24.8032 9.00835 24.6709 9.11988 24.6201 9.27595C24.5695 9.43202 24.6109 9.59991 24.7283 9.71431L25.773 10.7326C25.8176 10.7761 25.838 10.8387 25.8275 10.8998L25.581 12.3378C25.5592 12.4643 25.5924 12.5875 25.6743 12.6845C25.8016 12.8358 26.0238 12.8819 26.2015 12.7885L27.4928 12.1096C27.5468 12.0813 27.6147 12.0815 27.6686 12.1096L28.96 12.7885C29.0228 12.8216 29.0898 12.8383 29.1589 12.8383C29.2851 12.8383 29.4048 12.7822 29.4871 12.6845C29.5691 12.5875 29.6022 12.4641 29.5803 12.3378L29.3337 10.8998C29.3232 10.8386 29.3437 10.7761 29.3882 10.7326L30.4329 9.71419Z" fill="#132050"></path> </g> <defs> <clipPath id="clip0"> <rect y="7" width="5.96339" height="5.96339" fill="white"></rect> </clipPath> <clipPath id="clip1"> <rect x="8.19971" y="7" width="5.96339" height="5.96339" fill="white"></rect> </clipPath> <clipPath id="clip2"> <rect x="16.3993" y="7" width="5.96339" height="5.96339" fill="white"></rect> </clipPath> <clipPath id="clip3"> <rect x="24.599" y="7" width="5.96339" height="5.96339" fill="white"></rect> </clipPath> </defs> </svg>