<?xml version="1.0" encoding="UTF-8"?> <svg xmlns="http://www.w3.org/2000/svg" width="59" height="54" viewBox="0 0 59 54" fill="none"><circle cx="32" cy="27" r="27" fill="#F7F6FC"></circle><path d="M34.9519 19.3987C34.9497 19.3987 34.9475 19.3984 34.9453 19.3984H25.3828H24.5C22.5 19.3984 23.9634 19.3987 22.2188 19.3987L16 19.3984C14.2554 19.3984 14.5 19.3984 12.7266 19.3985L11.6172 19.3984H1.05469C0.467468 19.3984 0 19.8796 0 20.4531V43.6562C0 45.4009 1.41943 46.8203 3.16406 46.8203H32.8359C34.5806 46.8203 36 45.4009 36 43.6562V20.4754V20.4713C35.9596 19.7786 35.5336 19.4026 34.9519 19.3987ZM33.4819 21.5078L30.2066 31.3334C30.063 31.7649 29.6609 32.0547 29.2063 32.0547H23.2734V31C23.2734 30.4174 22.8013 29.9453 22.2188 29.9453H13.7812C13.1987 29.9453 12.7266 30.4174 12.7266 31V32.0547H6.79367C6.33911 32.0547 5.93701 31.7649 5.79337 31.3334L2.51807 21.5078H33.4819ZM21.1641 32.0547V34.1641H14.8359V32.0547H21.1641ZM33.8906 43.6562C33.8906 44.2377 33.4174 44.7109 32.8359 44.7109H3.16406C2.58261 44.7109 2.10938 44.2377 2.10938 43.6562V26.9524L3.79221 32.0006C4.22342 33.2948 5.42972 34.1641 6.79367 34.1641H12.7266V35.2187C12.7266 35.8013 13.1987 36.2734 13.7812 36.2734H22.2188C22.8013 36.2734 23.2734 35.8013 23.2734 35.2187V34.1641H29.2063C30.5703 34.1641 31.7766 33.2948 32.2078 32.0006L33.8906 26.9524V43.6562Z" fill="#132050"></path><path d="M11 18C11 16.8954 11.8954 16 13 16H24C25.1046 16 26 16.8954 26 18V19H11V18Z" fill="#F15822"></path></svg> 