<svg width="58" height="54" viewBox="0 0 58 54" fill="none" xmlns="http://www.w3.org/2000/svg"> <circle cx="31" cy="27" r="27" fill="#F7F6FC"></circle> <path fill-rule="evenodd" clip-rule="evenodd" d="M24 15H4C2.89543 15 2 15.8954 2 17V45C2 46.1046 2.89543 47 4 47H24C25.1046 47 26 46.1046 26 45V17C26 15.8954 25.1046 15 24 15ZM4 13C1.79086 13 0 14.7909 0 17V45C0 47.2091 1.79086 49 4 49H24C26.2091 49 28 47.2091 28 45V17C28 14.7909 26.2091 13 24 13H4Z" fill="#132050"></path> <rect x="6" y="20" width="7" height="2" rx="1" fill="#F15822"></rect> <rect x="6" y="24" width="16" height="2" rx="1" fill="#132050"></rect> <rect x="6" y="29" width="16" height="2" rx="1" fill="#132050"></rect> <rect x="6" y="34" width="16" height="2" rx="1" fill="#132050"></rect> <rect x="6" y="39" width="16" height="2" rx="1" fill="#132050"></rect> </svg>