<svg width="59" height="54" viewBox="0 0 59 54" fill="none" xmlns="http://www.w3.org/2000/svg"> <circle cx="32" cy="27" r="27" fill="#F7F6FC"></circle> <path d="M35.2969 24.6777H30.7969C30.4085 24.6777 30.0938 24.9925 30.0938 25.3808V35.0488C30.0938 35.437 30.4085 35.7519 30.7969 35.7519C31.1852 35.7519 31.5 35.437 31.5 35.0488V26.0839H34.5938V44.5938H33.0469H31.5V34.205C31.5 33.8167 31.1852 33.5019 30.7969 33.5019C30.4085 33.5019 30.0938 33.8167 30.0938 34.205V44.5938H28.6875V30.0391C28.6875 29.6508 28.3727 29.3359 27.9844 29.3359H23.4844C23.096 29.3359 22.7812 29.6508 22.7812 30.0391V44.5938H21.375V34.9609C21.375 34.5727 21.0602 34.2578 20.6719 34.2578H16.1719C15.7835 34.2578 15.4688 34.5727 15.4688 34.9609V44.5938H14.0625V38.9951C14.0625 38.6069 13.7477 38.292 13.3594 38.292H8.85938C8.47104 38.292 8.15625 38.6069 8.15625 38.9951V44.5938H2.10938C1.72167 44.5938 1.40625 44.2783 1.40625 43.8906V12.1094C1.40625 11.7217 1.72167 11.4062 2.10938 11.4062H20.2482V16.0471C20.2482 17.2102 21.1945 18.1565 22.3576 18.1565H26.9982V29.6172C26.9982 30.0055 27.313 30.3203 27.7014 30.3203C28.0897 30.3203 28.4045 30.0055 28.4045 29.6172V17.4533C28.4045 17.2669 28.3304 17.0881 28.1985 16.9562L21.4485 10.2059C21.3166 10.0741 21.1378 10 20.9514 10H2.10938C0.946266 10 0 10.9463 0 12.1094V43.8906C0 45.0537 0.946266 46 2.10938 46H35.2969C35.6852 46 36 45.6851 36 45.2969V25.3808C36 24.9925 35.6852 24.6777 35.2969 24.6777ZM21.6545 12.4007L26.004 16.7502H22.3576C21.9698 16.7502 21.6545 16.4348 21.6545 16.0471V12.4007ZM12.6562 44.5938H9.5625V39.6982H12.6562V44.5938ZM19.9688 44.5938H16.875V35.6641H19.9688V44.5938ZM27.2812 44.5938H24.1875V30.7422H27.2812V44.5938Z" fill="#132050"></path> <path d="M10.2359 13.8481C9.84757 13.8481 9.53278 14.163 9.53278 14.5513V15.8161C6.29623 16.1675 3.76892 18.9167 3.76892 22.2451C3.76892 25.811 6.67001 28.7121 10.2359 28.7121C13.5644 28.7121 16.3136 26.1849 16.6649 22.9483H17.9297C18.318 22.9483 18.6328 22.6334 18.6328 22.2451C18.6328 17.615 14.866 13.8481 10.2359 13.8481ZM10.2359 27.3058C7.44542 27.3058 5.17517 25.0356 5.17517 22.2451C5.17517 19.6932 7.07396 17.5764 9.53278 17.2331V22.2451C9.53278 22.6333 9.84757 22.9482 10.2359 22.9482H15.2479C14.9046 25.407 12.7878 27.3058 10.2359 27.3058ZM10.939 21.542V21.5419V15.2895C14.2333 15.6201 16.8609 18.2477 17.1915 21.542H10.939Z" fill="#132050"></path> <path d="M17.9297 30.6895H4.5C4.11166 30.6895 3.79688 31.0043 3.79688 31.3926C3.79688 31.7808 4.11166 32.0957 4.5 32.0957H17.9297C18.318 32.0957 18.6328 31.7808 18.6328 31.3926C18.6328 31.0043 18.318 30.6895 17.9297 30.6895Z" fill="#132050"></path> <path d="M12.1641 34.082H4.5C4.11166 34.082 3.79688 34.3969 3.79688 34.7852C3.79688 35.1734 4.11166 35.4883 4.5 35.4883H12.1641C12.5524 35.4883 12.8672 35.1734 12.8672 34.7852C12.8672 34.3969 12.5524 34.082 12.1641 34.082Z" fill="#132050"></path> <path d="M9.5 22V14.5C9.5 13.5 11.5 13.8333 12 14C16.5 15 18.8333 19.5 18.8333 21.5C18.8333 22.5 18.5 23 18 23H10.5C9.7 23 9.5 22.5 9.5 22Z" fill="#F15822"></path> </svg>