<svg width="58" height="54" viewBox="0 0 58 54" fill="none" xmlns="http://www.w3.org/2000/svg"> <circle cx="31" cy="27" r="27" fill="#F7F6FC"></circle> <path fill-rule="evenodd" clip-rule="evenodd" d="M6.16667 17H30.8333C33.1038 17 34.9444 18.7909 34.9444 21V33H37V21C37 17.6863 34.2391 15 30.8333 15H6.16667C2.76091 15 0 17.6863 0 21V43C0 46.3137 2.76091 49 6.16667 49H20.5556V47H6.16667C3.89616 47 2.05556 45.2091 2.05556 43V21C2.05556 18.7909 3.89616 17 6.16667 17Z" fill="#132050"></path> <rect x="9" y="13" width="2" height="6" rx="1" fill="#132050"></rect> <rect x="15" y="13" width="2" height="6" rx="1" fill="#132050"></rect> <rect x="27" y="13" width="2" height="6" rx="1" fill="#132050"></rect> <rect x="21" y="13" width="2" height="6" rx="1" fill="#132050"></rect> <path fill-rule="evenodd" clip-rule="evenodd" d="M28 47C31.866 47 35 43.866 35 40C35 36.134 31.866 33 28 33C24.134 33 21 36.134 21 40C21 43.866 24.134 47 28 47ZM28 49C32.9706 49 37 44.9706 37 40C37 35.0294 32.9706 31 28 31C23.0294 31 19 35.0294 19 40C19 44.9706 23.0294 49 28 49Z" fill="#132050"></path> <path fill-rule="evenodd" clip-rule="evenodd" d="M28 36C27.4477 36 27 36.4477 27 37V39L25 39C24.4477 39 24 39.4477 24 40C24 40.5523 24.4477 41 25 41H28C28.5523 41 29 40.5523 29 40V37C29 36.4477 28.5523 36 28 36Z" fill="#132050"></path> <circle cx="9.5" cy="26.5" r="1.5" fill="#F15822"></circle> <circle cx="15.5" cy="26.5" r="1.5" fill="#F15822"></circle> <circle cx="9.5" cy="32.5" r="1.5" fill="#132050"></circle> <circle cx="15.5" cy="32.5" r="1.5" fill="#132050"></circle> <circle cx="9.5" cy="38.5" r="1.5" fill="#132050"></circle> <circle cx="15.5" cy="38.5" r="1.5" fill="#132050"></circle> <circle cx="21.5" cy="26.5" r="1.5" fill="#132050"></circle> <circle cx="27.5" cy="26.5" r="1.5" fill="#132050"></circle> </svg>