<svg width="58" height="54" viewBox="0 0 58 54" fill="none" xmlns="http://www.w3.org/2000/svg"> <circle cx="31" cy="27" r="27" fill="#F7F6FC"></circle> <circle cx="6" cy="31" r="6" fill="#F15822"></circle> <path fill-rule="evenodd" clip-rule="evenodd" d="M22.3954 38.6395C23.5765 37.1146 25.4228 36.1279 27.4934 36.1279C31.0441 36.1279 33.9369 39.0133 33.9369 42.564C33.9369 46.1146 31.0516 49 27.5009 49C23.9502 49 21.0648 46.1071 21.0648 42.564C21.0648 41.8164 21.1994 41.0914 21.4386 40.4186L11.7453 35.0001C12.1284 34.4508 12.4348 33.8441 12.6489 33.1953L22.3954 38.6395ZM12.6414 28.7823L22.3805 23.3455C23.5541 24.8779 25.4079 25.8721 27.4859 25.8721C31.0291 25.8721 33.922 22.9867 33.922 19.436C33.922 15.8854 31.0366 13 27.4859 13C23.9353 13 21.0499 15.8854 21.0499 19.436C21.0499 20.1836 21.177 20.9012 21.4162 21.5664L11.7299 26.9779C12.1158 27.5266 12.4248 28.1333 12.6414 28.7823ZM31.9112 19.4435C31.9112 17.0066 29.9303 15.0257 27.4934 15.0257C25.064 15.0257 23.0756 17.0066 23.0756 19.4435C23.0756 21.8804 25.0565 23.8613 27.4934 23.8613C29.9303 23.8613 31.9112 21.8804 31.9112 19.4435ZM23.0756 42.5565C23.0756 44.9934 25.0565 46.9743 27.4934 46.9743C29.9303 46.9743 31.9112 44.9934 31.9112 42.5565C31.9112 40.1196 29.9303 38.1387 27.4934 38.1387C25.0565 38.1387 23.0756 40.1196 23.0756 42.5565Z" fill="#132050"></path> </svg>