<svg width="63" height="54" viewBox="0 0 63 54" fill="none" xmlns="http://www.w3.org/2000/svg"> <circle cx="36" cy="27" r="27" fill="#F7F6FC"></circle> <path d="M18.8857 10.1363C18.1532 9.40347 17.179 9 16.143 9C15.107 9 14.1328 9.40347 13.4003 10.136C12.6675 10.8688 12.264 11.8427 12.264 12.8787C12.264 13.6673 12.4983 14.4193 12.9328 15.0568L5.38052 33.5498C4.91085 33.3523 4.40191 33.2485 3.87704 33.2485C2.8413 33.2485 1.86709 33.6517 1.1343 34.3842C-0.377964 35.8967 -0.378239 38.3574 1.1343 39.8699L5.12838 43.864C5.8609 44.5965 6.83511 45 7.87112 45C8.90741 45 9.88134 44.5965 10.6139 43.864C11.3464 43.1315 11.7498 42.1573 11.7501 41.1213C11.7501 40.5964 11.646 40.0875 11.4485 39.6178L15.2896 38.0492L16.7909 39.5505C17.7533 40.5129 19.2513 41.054 20.6886 41.054C21.339 41.054 21.977 40.9433 22.5472 40.7104L26.2287 39.2066C27.2466 38.7908 27.9374 38.0223 28.1236 37.0978C28.3098 36.1736 27.9709 35.1972 27.1931 34.4196L26.3183 33.5448L29.941 32.0652C30.5788 32.4998 31.3308 32.734 32.1193 32.734C32.1196 32.734 32.1196 32.734 32.1196 32.734C33.1553 32.734 34.1295 32.3306 34.8621 31.5981C36.3743 30.0855 36.3743 27.6246 34.8621 26.1123L18.8857 10.1363ZM24.0587 32.1891C24.0551 32.1905 24.0515 32.1921 24.0479 32.1935L15.1479 35.8286C15.1443 35.83 15.1408 35.8314 15.1375 35.8327L10.1181 37.8828L7.11554 34.8802L14.5222 16.7437L28.2541 30.4758L24.0587 32.1891ZM9.12219 42.3726C8.7882 42.7066 8.34381 42.8906 7.87112 42.8906C7.39843 42.8906 6.95404 42.7066 6.61978 42.3723L2.6257 38.3785C1.93576 37.6886 1.93576 36.5658 2.6257 35.8759C2.95996 35.5416 3.40435 35.3576 3.87704 35.3576C4.34973 35.3576 4.79412 35.5419 5.12838 35.8761L9.12219 39.8699C9.45645 40.2042 9.64074 40.6486 9.64074 41.121C9.64047 41.594 9.45645 42.0381 9.12219 42.3726ZM25.7017 35.9113C25.9711 36.1807 26.1002 36.4614 26.0557 36.6812C26.0115 36.9012 25.7838 37.1099 25.4311 37.2538L21.7496 38.7576C20.7023 39.1852 19.0824 38.8586 18.2826 38.0591L17.4075 37.1843L24.2001 34.41L25.7017 35.9113ZM33.3704 30.1064C33.0361 30.4406 32.592 30.6247 32.1196 30.6247C32.1196 30.6247 32.1196 30.6247 32.1193 30.6247C31.6466 30.6247 31.202 30.4404 30.8677 30.1064L14.8917 14.1301V14.1298C14.5574 13.7958 14.3734 13.3517 14.3734 12.879C14.3734 12.4063 14.5574 11.9619 14.8917 11.6277C15.2259 11.2934 15.6703 11.1094 16.143 11.1094C16.6157 11.1094 17.0601 11.2934 17.3943 11.6277L33.3704 27.6037C34.0603 28.2939 34.0603 29.4164 33.3704 30.1064Z" fill="#132050"></path> <path d="M30.1218 15.9307C30.3915 15.9307 30.6615 15.8277 30.8675 15.6217L35.6886 10.8007C36.1006 10.3887 36.1006 9.72098 35.6886 9.30899C35.2766 8.897 34.6089 8.897 34.1972 9.30899L29.3759 14.1301C28.9641 14.5421 28.9641 15.2097 29.3759 15.6217C29.5819 15.8277 29.8518 15.9307 30.1218 15.9307Z" fill="#F15822"></path> <path d="M25.3288 12.7354C25.5988 12.7354 25.8688 12.6324 26.0747 12.4264L27.7007 10.8004C28.1127 10.3887 28.1127 9.72098 27.7007 9.30899C27.289 8.897 26.621 8.897 26.2091 9.30899L24.5831 10.935C24.1714 11.3467 24.1714 12.0144 24.5831 12.4264C24.7891 12.6324 25.0591 12.7354 25.3288 12.7354Z" fill="#F15822"></path> <path d="M34.1972 17.2968L32.5712 18.9231C32.1592 19.3351 32.1592 20.0028 32.5712 20.4147C32.7772 20.6207 33.0469 20.7235 33.3169 20.7235C33.5869 20.7235 33.8569 20.6205 34.0626 20.4147L35.6886 18.7885C36.1006 18.3765 36.1006 17.7088 35.6886 17.2968C35.2766 16.8851 34.6089 16.8851 34.1972 17.2968Z" fill="#F15822"></path> </svg>