<svg width="55" height="54" viewBox="0 0 55 54" fill="none" xmlns="http://www.w3.org/2000/svg"> <circle cx="28" cy="27" r="27" fill="#F7F6FC"></circle> <path fill-rule="evenodd" clip-rule="evenodd" d="M11.6564 29.0768C5.96478 31.4245 1.80725 36.735 1.10508 43.0869C1.03571 43.7145 1.00006 44.3522 1 44.9982V45H35.4348V44.9985C35.4348 44.3524 35.3991 43.7146 35.3298 43.0869C34.6379 36.8283 30.5915 31.5808 25.0284 29.1822C24.4705 29.6962 23.8528 30.1461 23.1868 30.5204C28.6196 32.3845 32.6718 37.2201 33.4034 43.0869H3.03145C3.77327 37.138 7.92935 32.2494 13.4769 30.4439C12.8171 30.0593 12.2063 29.5997 11.6564 29.0768Z" fill="#132050"></path> <path d="M11.6564 29.0768L11.8286 28.8956L11.711 28.7838L11.561 28.8457L11.6564 29.0768ZM1.10508 43.0869L0.856595 43.0594L1.10508 43.0869ZM1 44.9982L0.75 44.9982V44.9982H1ZM1 45H0.75V45.25H1V45ZM35.4348 45V45.25H35.6848V45H35.4348ZM35.4348 44.9985H35.6848V44.9985L35.4348 44.9985ZM35.3298 43.0869L35.5783 43.0594L35.3298 43.0869ZM25.0284 29.1822L25.1274 28.9526L24.9783 28.8884L24.859 28.9983L25.0284 29.1822ZM23.1868 30.5204L23.0643 30.3025L22.578 30.5758L23.1057 30.7569L23.1868 30.5204ZM33.4034 43.0869V43.3369H33.6865L33.6515 43.056L33.4034 43.0869ZM3.03145 43.0869L2.78337 43.056L2.74834 43.3369H3.03145V43.0869ZM13.4769 30.4439L13.5542 30.6817L14.0848 30.509L13.6028 30.228L13.4769 30.4439ZM11.561 28.8457C5.78715 31.2274 1.56904 36.6145 0.856595 43.0594L1.35357 43.1144C2.04545 36.8555 6.14241 31.6217 11.7517 29.3079L11.561 28.8457ZM0.856595 43.0594C0.786217 43.6961 0.750065 44.343 0.75 44.9982L1.25 44.9982C1.25006 44.3614 1.2852 43.7328 1.35357 43.1144L0.856595 43.0594ZM0.75 44.9982V45H1.25V44.9982H0.75ZM1 45.25H35.4348V44.75H1V45.25ZM35.6848 45V44.9985H35.1848V45H35.6848ZM35.6848 44.9985C35.6848 44.3432 35.6486 43.6962 35.5783 43.0594L35.0813 43.1144C35.1497 43.7329 35.1848 44.3616 35.1848 44.9985L35.6848 44.9985ZM35.5783 43.0594C34.8763 36.7092 30.7709 31.3859 25.1274 28.9526L24.9294 29.4117C30.4121 31.7757 34.3996 36.9475 35.0813 43.1144L35.5783 43.0594ZM24.859 28.9983C24.3153 29.4993 23.7133 29.9378 23.0643 30.3025L23.3093 30.7384C23.9923 30.3545 24.6258 29.8931 25.1978 29.366L24.859 28.9983ZM33.6515 43.056C32.9078 37.0926 28.7893 32.1785 23.268 30.284L23.1057 30.7569C28.4498 32.5906 32.4358 37.3476 33.1553 43.1178L33.6515 43.056ZM3.03145 43.3369H33.4034V42.8369H3.03145V43.3369ZM13.3995 30.2062C7.76144 32.0412 3.5374 37.0092 2.78337 43.056L3.27953 43.1178C4.00914 37.2668 8.09726 32.4577 13.5542 30.6817L13.3995 30.2062ZM13.6028 30.228C12.9598 29.8531 12.3646 29.4052 11.8286 28.8956L11.4841 29.258C12.048 29.7941 12.6743 30.2654 13.351 30.6599L13.6028 30.228Z" fill="#132050"></path> <path fill-rule="evenodd" clip-rule="evenodd" d="M18.439 26.6604C22.7875 26.6604 26.3127 23.1353 26.3127 18.7867C26.3127 14.4382 22.7875 10.913 18.439 10.913C14.0904 10.913 10.5653 14.4382 10.5653 18.7867C10.5653 23.1353 14.0904 26.6604 18.439 26.6604ZM18.439 28.5735C23.844 28.5735 28.2257 24.1918 28.2257 18.7867C28.2257 13.3817 23.844 9 18.439 9C13.0339 9 8.65222 13.3817 8.65222 18.7867C8.65222 24.1918 13.0339 28.5735 18.439 28.5735Z" fill="#132050" stroke="#132050" stroke-width="0.5"></path> <path fill-rule="evenodd" clip-rule="evenodd" d="M22.3625 33.2525C21.9219 32.9195 21.2948 33.0066 20.9618 33.4472L17.84 37.5769L16.2445 36.3708C15.8039 36.0377 15.1768 36.1249 14.8437 36.5655C14.5107 37.006 14.5979 37.6332 15.0384 37.9662L17.4316 39.7753C17.5624 39.8742 17.7097 39.936 17.8609 39.9626C17.8883 39.9674 17.9157 39.971 17.9433 39.9735C18.276 40.0038 18.6162 39.8667 18.8325 39.5806L22.5572 34.6532C22.8903 34.2127 22.8031 33.5855 22.3625 33.2525Z" fill="#F15822"></path> </svg>