<svg width="60" height="54" viewBox="0 0 60 54" fill="none" xmlns="http://www.w3.org/2000/svg"> <circle cx="33" cy="27" r="27" fill="#F7F6FC"></circle> <g clip-path="url(#clip0)"> <path d="M2.74567 29.0852C3.01566 29.0852 3.28537 28.9822 3.49136 28.7762L9.30121 23.8118L12.7743 27.2848C13.1862 27.6968 13.8537 27.6968 14.2657 27.2848L22.0277 19.6008V21.2734C22.0277 21.8563 22.4996 22.3281 23.0824 22.3281C23.6652 22.3281 24.1371 21.8563 24.1371 21.2734V17.0547C24.1371 17.0201 24.1352 16.9852 24.1319 16.9509C24.1302 16.9336 24.1269 16.9168 24.1245 16.9001C24.122 16.883 24.1201 16.866 24.1168 16.8492C24.1129 16.8286 24.1071 16.8089 24.1022 16.7888C24.0986 16.7759 24.0959 16.7627 24.092 16.7498C24.0857 16.7287 24.078 16.7083 24.0703 16.6877C24.0659 16.6762 24.0624 16.6644 24.0577 16.6531C24.0489 16.632 24.0388 16.6114 24.0289 16.5911C24.0239 16.5806 24.0193 16.5702 24.014 16.56C24.002 16.5375 23.9888 16.5161 23.9753 16.4947C23.9706 16.487 23.9665 16.4793 23.9616 16.4719C23.9426 16.4436 23.9226 16.4161 23.9012 16.3897C23.8556 16.334 23.8039 16.2821 23.7482 16.2365C23.7218 16.2151 23.6935 16.1945 23.6652 16.1755C23.6578 16.1706 23.6501 16.1664 23.6424 16.1618C23.621 16.1483 23.5996 16.1351 23.5771 16.123C23.5669 16.1176 23.5565 16.1132 23.546 16.1082C23.5257 16.0981 23.5051 16.0882 23.4839 16.0794C23.4727 16.0747 23.4609 16.0711 23.4493 16.0667C23.4287 16.0591 23.4084 16.0514 23.3873 16.045C23.3744 16.0412 23.3612 16.0385 23.3483 16.0349C23.3282 16.0299 23.3084 16.0242 23.2878 16.0203C23.2711 16.017 23.2541 16.0151 23.237 16.0126C23.2203 16.0102 23.2035 16.0069 23.1862 16.0052C23.1519 16.0019 23.117 16 23.0824 16H18.8636C18.2808 16 17.809 16.4719 17.809 17.0547C17.809 17.6375 18.2808 18.1094 18.8636 18.1094H20.5363L13.52 25.0477L10.0469 21.5747C9.63492 21.1627 8.9675 21.1627 8.55551 21.5747L1.99997 27.2848C1.58798 27.6968 1.58798 28.3642 1.99997 28.7762C2.20596 28.9822 2.47568 29.0852 2.74567 29.0852Z" fill="#132050"></path> <path d="M0 43.9453C0 44.5281 0.471863 45 1.05469 45H9.49219C10.075 45 10.5469 44.5281 10.5469 43.9453V42.4688H0V43.9453Z" fill="#132050"></path> <path d="M9.49219 37.8281H1.05469C0.471863 37.8281 0 38.3 0 38.8828V40.3594H10.5469V38.8828C10.5469 38.3 10.075 37.8281 9.49219 37.8281Z" fill="#132050"></path> <path d="M12.7266 43.9453C12.7266 44.5281 13.1984 45 13.7812 45H22.2188C22.8016 45 23.2734 44.5281 23.2734 43.9453V42.4688H12.7266V43.9453Z" fill="#132050"></path> <path d="M25.4531 37.8281H36V40.3594H25.4531V37.8281Z" fill="#132050"></path> <path d="M34.9453 23.9062H26.5078C25.925 23.9062 25.4531 24.3781 25.4531 24.9609V26.4375H36V24.9609C36 24.3781 35.5281 23.9062 34.9453 23.9062Z" fill="#132050"></path> <path d="M25.4531 28.5469H36V31.0781H25.4531V28.5469Z" fill="#132050"></path> <path d="M25.4531 33.1875H36V35.7188H25.4531V33.1875Z" fill="#132050"></path> <path d="M25.4531 43.9453C25.4531 44.5281 25.925 45 26.5078 45H34.9453C35.5281 45 36 44.5281 36 43.9453V42.4688H25.4531V43.9453Z" fill="#132050"></path> <path d="M12.7266 37.8281H23.2734V40.3594H12.7266V37.8281Z" fill="#132050"></path> <path d="M22.2188 33.1875H13.7812C13.1984 33.1875 12.7266 33.6594 12.7266 34.2422V35.7188H23.2734V34.2422C23.2734 33.6594 22.8016 33.1875 22.2188 33.1875Z" fill="#132050"></path> <path d="M32.38 11.43V17H31.08V16.48H31.04C30.8867 16.6533 30.68 16.8133 30.42 16.96C30.16 17.1 29.8433 17.17 29.47 17.17C29.2367 17.17 28.9933 17.12 28.74 17.02C28.4867 16.9267 28.2533 16.7767 28.04 16.57C27.8267 16.3567 27.65 16.09 27.51 15.77C27.37 15.4433 27.3 15.0533 27.3 14.6C27.3 14.22 27.36 13.8733 27.48 13.56C27.6067 13.2467 27.7733 12.98 27.98 12.76C28.1867 12.5333 28.4267 12.36 28.7 12.24C28.98 12.1133 29.27 12.05 29.57 12.05C29.93 12.05 30.2233 12.1167 30.45 12.25C30.6767 12.3833 30.8667 12.5533 31.02 12.76H31.06V11.43H29.48V10.53H31.06V9.8H32.38V10.53H33.02V11.43H32.38ZM28.67 14.61C28.67 14.7833 28.6933 14.9533 28.74 15.12C28.7933 15.2867 28.87 15.4367 28.97 15.57C29.0767 15.6967 29.2067 15.8 29.36 15.88C29.5133 15.96 29.6933 16 29.9 16C30.06 16 30.21 15.9667 30.35 15.9C30.4967 15.8333 30.6233 15.74 30.73 15.62C30.8433 15.4933 30.9333 15.3467 31 15.18C31.0667 15.0067 31.1 14.82 31.1 14.62C31.1 14.4133 31.07 14.2233 31.01 14.05C30.95 13.87 30.8667 13.72 30.76 13.6C30.6533 13.4733 30.5267 13.3767 30.38 13.31C30.2333 13.2367 30.0767 13.2 29.91 13.2C29.7033 13.2 29.52 13.2433 29.36 13.33C29.2067 13.41 29.0767 13.5167 28.97 13.65C28.87 13.7833 28.7933 13.9333 28.74 14.1C28.6933 14.2667 28.67 14.4367 28.67 14.61Z" fill="#F15822"></path> <path d="M27 18H33.02V18.5H27V18Z" fill="#F15822"></path> </g> <defs> <clipPath id="clip0"> <rect y="9" width="36" height="36" fill="white"></rect> </clipPath> </defs> </svg>