<svg width="60" height="54" viewBox="0 0 60 54" fill="none" xmlns="http://www.w3.org/2000/svg"> <circle cx="33" cy="27" r="27" fill="#F7F6FC"></circle> <path d="M38.9987 35.8201C38.9987 38.5991 36.4969 38.9961 34.7134 38.9961C34.7134 38.9961 36.846 39.0948 37.9236 38.3007C39.0013 37.5067 38.9987 35.8201 38.9987 35.8201ZM38.9987 35.8201C38.9987 34.2321 38.2879 33.0411 35.7835 32.2471C35.4267 32.134 34.7993 32.0628 34.3625 31.0901C33.9257 30.1173 34.0058 28.6741 34.0058 28.6741V13.622C34.0058 13.622 33.9867 12.8492 34.3434 12.431C34.7001 12.0129 35.9774 11.926 36.5026 12.0552C38.7389 12.6053 39.0227 14.6802 38.9987 15.782V35.8201Z" stroke="#132050" stroke-width="2"></path> <path d="M10.4 19.2C10.4 20.8 9.00002 23.2 6.40002 23.2" stroke="#132050" stroke-width="2"></path> <path d="M6.40002 34.4C8.00002 34.4 10.4 35.8 10.4 38.4" stroke="#132050" stroke-width="2"></path> <circle cx="23.2" cy="28.8" r="6.4" stroke="#132050" stroke-width="1.5"></circle> <path d="M25.104 26.7441V31.2001H24.064V30.7841H24.032C23.9093 30.9227 23.744 31.0507 23.536 31.1681C23.328 31.2801 23.0747 31.3361 22.776 31.3361C22.5893 31.3361 22.3947 31.2961 22.192 31.2161C21.9893 31.1414 21.8027 31.0214 21.632 30.8561C21.4613 30.6854 21.32 30.4721 21.208 30.2161C21.096 29.9547 21.04 29.6427 21.04 29.2801C21.04 28.9761 21.088 28.6987 21.184 28.4481C21.2853 28.1974 21.4187 27.9841 21.584 27.8081C21.7493 27.6267 21.9413 27.4881 22.16 27.3921C22.384 27.2907 22.616 27.2401 22.856 27.2401C23.144 27.2401 23.3787 27.2934 23.56 27.4001C23.7413 27.5067 23.8933 27.6427 24.016 27.8081H24.048V26.7441H22.784V26.0241H24.048V25.4401H25.104V26.0241H25.616V26.7441H25.104ZM22.136 29.2881C22.136 29.4267 22.1547 29.5627 22.192 29.6961C22.2347 29.8294 22.296 29.9494 22.376 30.0561C22.4613 30.1574 22.5653 30.2401 22.688 30.3041C22.8107 30.3681 22.9547 30.4001 23.12 30.4001C23.248 30.4001 23.368 30.3734 23.48 30.3201C23.5973 30.2667 23.6987 30.1921 23.784 30.0961C23.8747 29.9947 23.9467 29.8774 24 29.7441C24.0533 29.6054 24.08 29.4561 24.08 29.2961C24.08 29.1307 24.056 28.9787 24.008 28.8401C23.96 28.6961 23.8933 28.5761 23.808 28.4801C23.7227 28.3787 23.6213 28.3014 23.504 28.2481C23.3867 28.1894 23.2613 28.1601 23.128 28.1601C22.9627 28.1601 22.816 28.1947 22.688 28.2641C22.5653 28.3281 22.4613 28.4134 22.376 28.5201C22.296 28.6267 22.2347 28.7467 22.192 28.8801C22.1547 29.0134 22.136 29.1494 22.136 29.2881Z" fill="#F15822"></path> <path d="M20.8 32.0001H25.616V32.4001H20.8V32.0001Z" fill="#F15822"></path> <path fill-rule="evenodd" clip-rule="evenodd" d="M6 22.4H3.2C1.43269 22.4 0 23.8327 0 25.6V41.6C0 43.3673 1.43269 44.8 3.2 44.8H36.8C38.5673 44.8 40 43.3673 40 41.6V36H38.4V41.6C38.4 42.4837 37.6837 43.2 36.8 43.2H3.2C2.31634 43.2 1.6 42.4837 1.6 41.6V25.6C1.6 24.7164 2.31634 24 3.2 24H6V22.4Z" fill="#132050"></path> <path fill-rule="evenodd" clip-rule="evenodd" d="M33 17.6H8.79999C6.59085 17.6 4.79999 19.3908 4.79999 21.6V36C4.79999 38.2091 6.59085 40 8.79999 40H36C37.4805 40 38.7732 39.1956 39.4648 38H33V38H8.79999C7.69542 38 6.79999 37.1045 6.79999 36V21.6C6.79999 20.4954 7.69542 19.6 8.79999 19.6H33V17.6Z" fill="#132050"></path> </svg>