<svg width="56" height="54" viewBox="0 0 56 54" fill="none" xmlns="http://www.w3.org/2000/svg"> <circle cx="29" cy="27" r="27" fill="#F7F6FC"></circle> <path fill-rule="evenodd" clip-rule="evenodd" d="M29.2798 31H9.72015C8.39533 31 7.22736 31.869 6.84667 33.138L2.68806 47H28.5119L32.1533 34.862C32.7308 32.9372 31.2894 31 29.2798 31ZM30 49L34.069 35.4367C35.0314 32.2287 32.6292 29 29.2798 29H9.72015C7.51211 29 5.5655 30.4483 4.93102 32.5633L0 49H30Z" fill="#132050"></path> <rect x="9" y="19" width="7" height="2" rx="1" fill="#C4C4C4"></rect> <rect x="9" y="19" width="7" height="2" rx="1" fill="#F15822"></rect> <rect x="9" y="23" width="11" height="2" rx="1" fill="#132050"></rect> <path fill-rule="evenodd" clip-rule="evenodd" d="M19.3017 15.5155L21.1748 17.2064L22.3099 18.1901C22.7482 18.57 23 19.1215 23 19.7015V29.0811L25 29.027V19.7015C25 18.5414 24.4964 17.4385 23.6197 16.6788L22.5 15.7083L20.642 14.0309C19.9069 13.3673 18.9518 13 17.9615 13H8C5.79086 13 4 14.7909 4 17V35C4 36.0229 4.38392 36.956 5.01552 37.6633L6 34.4286V17C6 15.8954 6.89543 15 8 15H17.9615C18.4567 15 18.9342 15.1837 19.3017 15.5155Z" fill="#132050"></path> <path fill-rule="evenodd" clip-rule="evenodd" d="M4 22H2V47H27V49H0V22C0 20.8954 0.895432 20 2 20H4V22ZM30 31V25C30 23.8954 29.1046 23 28 23H25V25H28V31H30Z" fill="#132050"></path> </svg>