<svg width="63" height="54" viewBox="0 0 63 54" fill="none" xmlns="http://www.w3.org/2000/svg"> <circle cx="36" cy="27" r="27" fill="#F7F6FC"></circle> <path d="M36.0105 25.9759C36.3639 25.4518 36.5705 24.8209 36.5705 24.1426V23.5159C36.5705 21.7032 35.0956 20.2284 33.2829 20.2284C32.3784 20.2284 31.5581 20.5956 30.9631 21.1888C29.4236 16.6101 25.0909 13.3027 20 13.3027C14.9091 13.3027 10.5764 16.61 9.03687 21.1888C8.44187 20.5956 7.62164 20.2284 6.71711 20.2284C4.90438 20.2284 3.42953 21.7032 3.42953 23.5159V24.1426C3.42953 24.8209 3.63609 25.4518 3.98953 25.9759C1.71383 26.4554 0 28.4784 0 30.8947V32.4677C0 32.8991 0.349844 33.2489 0.78125 33.2489H4.84375C5.27516 33.2489 5.625 32.8991 5.625 32.4677C5.625 32.0363 5.27516 31.6864 4.84375 31.6864H1.5625V30.8947C1.5625 28.9843 3.11672 27.4301 5.02711 27.4301H8.72469C9.02453 28.7489 9.55008 29.983 10.2591 31.0888L1.34516 40.0027C0.20375 41.1442 0.20375 43.0016 1.34523 44.1432C1.91602 44.714 2.66562 44.9993 3.41539 44.9993C4.16516 44.9993 4.91492 44.7139 5.4857 44.1432L14.5 35.0334C14.8051 34.7283 14.8051 34.2337 14.5 33.9285C14.1948 33.6235 13.7003 33.6235 13.3951 33.9285L4.38086 43.0383C3.84844 43.5706 2.98234 43.5705 2.45 43.0384C1.91773 42.506 1.91773 41.6398 2.45 41.1075L11.2005 32.357C13.323 34.8463 16.4801 36.4277 20 36.4277C25.4944 36.4277 30.1055 32.5754 31.2753 27.4301H34.9729C36.8833 27.4301 38.4375 28.9843 38.4375 30.8947V31.6864H31.0938C30.6623 31.6864 30.3125 32.0363 30.3125 32.4677C30.3125 32.8991 30.6623 33.2489 31.0938 33.2489H39.2188C39.6502 33.2489 40 32.8991 40 32.4677V30.8947C40 28.4784 38.2862 26.4554 36.0105 25.9759ZM8.44219 24.1427C8.44219 25.0938 7.66836 25.8677 6.71711 25.8677C5.76586 25.8677 4.99203 25.0938 4.99203 24.1427V23.516C4.99203 22.5648 5.76586 21.7909 6.71711 21.7909C7.66836 21.7909 8.44219 22.5648 8.44219 23.516V24.1427ZM20 34.8652C14.486 34.8652 10 30.3792 10 24.8652C10 19.3512 14.486 14.8652 20 14.8652C25.514 14.8652 30 19.3512 30 24.8652C30 30.3792 25.514 34.8652 20 34.8652ZM35.0079 24.1427C35.0079 25.0938 34.2341 25.8677 33.2828 25.8677C32.3316 25.8677 31.5577 25.0938 31.5577 24.1427V23.516C31.5577 22.5648 32.3316 21.7909 33.2828 21.7909C34.2341 21.7909 35.0079 22.5648 35.0079 23.516V24.1427Z" fill="#132050"></path> <path d="M20 16.4277C15.3475 16.4277 11.5625 20.2127 11.5625 24.8652C11.5625 27.2801 12.5825 29.4609 14.2139 31.0004C14.2418 31.0305 14.2717 31.059 14.3045 31.0848C15.8066 32.4614 17.8068 33.3027 20 33.3027C22.1932 33.3027 24.1934 32.4613 25.6955 31.0848C25.7283 31.0591 25.7582 31.0305 25.7861 31.0004C27.4175 29.4609 28.4375 27.2801 28.4375 24.8652C28.4375 20.2128 24.6525 16.4277 20 16.4277ZM20 31.7402C18.3935 31.7402 16.9141 31.1862 15.7424 30.2595C16.5725 28.6888 18.1902 27.7006 20 27.7006C21.8098 27.7006 23.4275 28.6888 24.2576 30.2595C23.0859 31.1862 21.6065 31.7402 20 31.7402ZM18.3537 24.4918V23.8848C18.3537 22.977 19.0922 22.2385 20 22.2385C20.9078 22.2385 21.6463 22.977 21.6463 23.8848V24.4918C21.6463 25.3996 20.9078 26.1381 20 26.1381C19.0922 26.1381 18.3537 25.3996 18.3537 24.4918ZM25.4004 29.1152C24.6847 27.9732 23.6371 27.1023 22.411 26.6058C22.907 26.0407 23.2088 25.3011 23.2088 24.4919V23.8849C23.2088 22.1156 21.7693 20.6761 20 20.6761C18.2307 20.6761 16.7912 22.1156 16.7912 23.8849V24.4919C16.7912 25.3011 17.0929 26.0407 17.589 26.6058C16.3629 27.1024 15.3154 27.9732 14.5996 29.1152C13.6765 27.9447 13.125 26.4682 13.125 24.8652C13.125 21.0744 16.2091 17.9902 20 17.9902C23.7909 17.9902 26.875 21.0744 26.875 24.8652C26.875 26.4682 26.3235 27.9447 25.4004 29.1152Z" fill="#132050"></path> <path d="M20.0159 5.00061C19.5845 5.00061 19.2346 5.35045 19.2346 5.78186V10.44C19.2346 10.8715 19.5845 11.2212 20.0159 11.2212C20.4473 11.2212 20.7971 10.8714 20.7971 10.44V5.78186C20.7971 5.35045 20.4473 5.00061 20.0159 5.00061Z" fill="#F15822"></path> <path d="M26.6389 8.06518C26.3338 7.76018 25.8392 7.76018 25.534 8.06518L24.1609 9.4383C23.8558 9.74338 23.8558 10.2381 24.1609 10.5432C24.3135 10.6957 24.5134 10.7721 24.7134 10.7721C24.9134 10.7721 25.1132 10.6957 25.2658 10.5432L26.6389 9.1701C26.944 8.86502 26.944 8.37033 26.6389 8.06518Z" fill="#F15822"></path> <path d="M15.8522 9.44772L14.4659 8.06139C14.1607 7.75639 13.6662 7.75639 13.3609 8.06139C13.0559 8.36647 13.0559 8.86116 13.3609 9.16632L14.7474 10.5526C14.8999 10.7051 15.0999 10.7815 15.2998 10.7815C15.4997 10.7815 15.6996 10.7051 15.8522 10.5526C16.1573 10.2476 16.1573 9.75288 15.8522 9.44772Z" fill="#F15822"></path> </svg>