<svg xmlns="http://www.w3.org/2000/svg" viewBox="0 0 111.7 94.95"><defs><style>.cls-1{fill:#f15822;}</style></defs><title>Asset 91</title><g id="Layer_2" data-name="Layer 2"><g id="Layer_1-2" data-name="Layer 1"><path class="cls-1" d="M77.14,73.28c-.1-.42-.17-.84-.3-1.26q-2-6.37-4.06-12.75c-.9-2.86-1.76-5.73-2.67-8.58-1.09-3.44-2.22-6.86-3.29-10.31a33.08,33.08,0,0,1-1.3-4.85c-.21-1.34,1.27-2.91,2.62-3.14a3.38,3.38,0,0,1,3.93,1.89c.67,1.89,1.25,3.81,1.86,5.72.93,2.9,1.87,5.8,2.79,8.7.68,2.14,1.34,4.28,2,6.42.58,1.83,1.17,3.67,1.78,5.49a4.59,4.59,0,0,0,.48.83l.29-.09a4.73,4.73,0,0,0-.1-.93c-1-3.19-2.07-6.36-3-9.56a9,9,0,0,1-.32-3.14,3.08,3.08,0,0,1,2.78-2.61c2-.2,3,.43,3.53,2,.85,2.3,1.56,4.66,2.32,7,.49,1.5,1,3,1.46,4.5a3.84,3.84,0,0,0,.33.59l.31,0a3.55,3.55,0,0,0,0-1c-.6-1.91-1.26-3.8-1.85-5.72a18.31,18.31,0,0,1-.82-3.4,3.12,3.12,0,0,1,2.55-3.39c2.25-.35,3.59.44,4.18,2.37.8,2.64,1.65,5.26,2.51,7.87a4.49,4.49,0,0,0,.61,1l.32-.14a11.52,11.52,0,0,0-.23-1.17c-.49-1.7-1.07-3.37-1.45-5.08-.28-1.28-.41-2.64.83-3.62a3.57,3.57,0,0,1,5.7,1.76q2.52,7.9,5,15.82c1.53,4.82,3.08,9.63,4.6,14.44.38,1.2.72,2.42,1,3.63a3.49,3.49,0,0,1-2,4.17,28.44,28.44,0,0,1-3.23,1.2c-3.43,1.12-6.87,2.2-10.31,3.3s-7.11,2.31-10.67,3.45a5.18,5.18,0,0,1-5.19-.68,9.45,9.45,0,0,1-2.06-2.7C74.7,84.83,71.35,78.44,68,72.05q-1.2-2.26-2.34-4.56A3.47,3.47,0,0,1,67,63,3.21,3.21,0,0,1,71.49,64c1.28,2.07,2.41,4.23,3.62,6.34.58,1,1.18,2,1.77,3Z"/><path class="cls-1" d="M92,44.33c-1.14.06-1.65-.39-1.72-1.45s-.11-2.31-.12-3.46c0-4.37-.05-8.74-.09-13.12Q90,21,89.88,15.6c-.07-3.91-.16-7.82-.24-11.73a1.84,1.84,0,0,0-1.76-2.1,28.51,28.51,0,0,0-8.65-.11,54.88,54.88,0,0,0-17.3,5.89c-2.56,1.32-5,2.84-7.55,4.23A2.59,2.59,0,0,0,53.08,14c0,.35,0,.7,0,1.05q0,23.1,0,46.21c0,2.76.07,5.52.12,8.28a7.62,7.62,0,0,0,.17,1.15l10.11-5.08,1.57,4.72-2.88.69,0,.21a2.06,2.06,0,0,0,.61.23c.64,0,1.29,0,1.93,0,1.31,0,1.88.43,2.14,1.86-.29,0-.57,0-.85,0q-32.49,0-65,0c-.77,0-1-.22-1-1q0-30,0-60c0-.76.21-1.07,1-1,1,.06,1.93,0,2.9,0,.43,0,.67-.12.69-.65C4.61,9.69,5,9.3,6,9.07l.87-.18c1.62-.31,1.91-.63,1.88-2.31a1.11,1.11,0,0,1,1-1.29c.78-.17,1.54-.45,2.32-.64a1,1,0,0,0,.83-1l0-.81c0-1.37.28-1.66,1.6-2A28,28,0,0,1,26.13.45a53.85,53.85,0,0,1,15.69,5.2C45,7.24,48,9.06,51.06,10.81a1.91,1.91,0,0,0,2.1,0C56.3,9,59.39,7.15,62.62,5.56a72.09,72.09,0,0,1,8.17-3.27A43.33,43.33,0,0,1,77.14.61a28.21,28.21,0,0,1,9.12-.4C87.53.39,88.78.67,90,1s1.32.56,1.3,1.67c0,1.77.12,2,1.92,2.32a4.61,4.61,0,0,1,1.45.43,2.71,2.71,0,0,1,.78,1c.09.17,0,.42,0,.64,0,1.15.35,1.55,1.5,1.78.62.13,1.24.3,1.85.49a1.15,1.15,0,0,1,.9,1.27c-.08.69.28.81.85.8.91,0,1.83,0,2.74,0,.68,0,1,.17.93.9a3.85,3.85,0,0,0,0,.48V53.32h-.12c-.49-1.39-1-2.78-1.47-4.17-1-2.94-1-6-.93-9.06s0-6.23,0-9.34q0-8.09,0-16.18a1.09,1.09,0,0,0-1.7-1,.77.77,0,0,0-.31.49,5.27,5.27,0,0,0,0,.89V44.7a9.69,9.69,0,0,1-1.42-.2A.76.76,0,0,1,98,44a3.67,3.67,0,0,1,0-.88V12.58c0-.29,0-.59,0-.88-.07-1.28-.77-1.85-2-1.59a.73.73,0,0,0-.4.54c0,2.92.09,5.84.13,8.77s0,6.17.07,9.25c.06,4.35.17,8.69.25,13a11,11,0,0,1-.06,2.37c-.17.85-.92,1.24-1.8,1.52V43.11c0-4.86,0-9.71,0-14.57-.07-6.7-.2-13.4-.31-20.1,0-.93,0-1.86-1.12-2.27-.93-.33-1.27-.09-1.25.89l.15,10.86q.15,9.81.31,19.63L92,43.42ZM51,70.78c.05-.63.12-1.09.12-1.56V14.64c0-.32,0-.65,0-1a2,2,0,0,0-1-1.67c-1.32-.81-2.63-1.64-4-2.42A62.71,62.71,0,0,0,35.29,4.41a76.33,76.33,0,0,0-8.62-2.48A25.36,25.36,0,0,0,17,1.69c-1.83.29-2.38.79-2.41,2.64q-.11,8.56-.2,17.13-.11,9.13-.2,18.27c0,6.22-.07,12.45-.13,18.67,0,.79.23,1,1.06,1.05q3.17.09,6.32.41a48.32,48.32,0,0,1,9.93,2.21,99.13,99.13,0,0,1,15.9,6.82ZM4.59,69.18V14.55c0-1-.09-1.05-1.09-1.09s-.93.51-.93,1.18q0,27.74,0,55.47c0,1.32,0,1.32,1.34,1.32H41a2.47,2.47,0,0,0,.72,0,2.31,2.31,0,0,0,.54-.36c-.18-.13-.35-.33-.54-.36q-2.51-.36-5-.66c-2.66-.3-5.33-.54-8-.88a83.69,83.69,0,0,0-16.43-.85c-2.23.15-4.45.55-6.68.83C5.34,69.16,5,69.16,4.59,69.18Zm3.35-4.33c0-1.07.12-2,.13-2.87.09-6.54.16-13.08.26-19.62.07-5.15.18-10.3.25-15.44s.14-10.51.2-15.77c0-1.09-.43-1.41-1.43-.9a2,2,0,0,0-.86,1A5.16,5.16,0,0,0,6.32,13c0,5.39,0,10.78,0,16.17,0,3.95,0,7.89,0,11.83q0,12.88,0,25.75v.08c0,.52.2.67.74.64,4.09-.24,8.16-.78,12.27-.44,3.5.29,7,.45,10.49.78,2.82.26,5.63.7,8.44,1a3.3,3.3,0,0,0,.7,0C28.9,65.52,18.73,63.21,7.94,64.85Zm30.78,1.92.08-.23C30.35,62.83,21.71,60,12.18,61c0-.38,0-.7,0-1,0-1.69.1-3.38.12-5.06q.11-8,.19-16c0-3.46,0-6.93.08-10.39,0-2.89.1-5.78.15-8.68q.12-6.56.23-13.11c0-.47-.2-.66-.69-.64-1.11,0-1.7.75-1.73,2.15-.08,5.52-.18,11-.26,16.56q-.11,8-.2,16c0,2.69,0,5.37,0,8.05l-.09,13.6c0,.57.27.74.8.69.86-.08,1.71-.14,2.57-.16a64.48,64.48,0,0,1,13.51,1.11q3,.57,6,1.25C34.79,65.78,36.75,66.29,38.72,66.77Z"/></g></g></svg>