<svg xmlns="http://www.w3.org/2000/svg" viewBox="0 0 108.45 77.34"><defs><style>.cls-1{fill:#f15822;}</style></defs><title>Asset 89</title><g id="Layer_2" data-name="Layer 2"><g id="Layer_1-2" data-name="Layer 1"><path class="cls-1" d="M95.59,77.34c-.91-.89-1.69-1.65-2.46-2.42C91.2,73,89.2,71.13,87.39,69.1a3.94,3.94,0,0,0-3.33-1.32q-19.08.07-38.15,0a4.47,4.47,0,0,1-4.32-2.43,4.89,4.89,0,0,1-.51-2.06c-.07-1.91,0-3.83,0-5.75,0-.6-.21-.8-.79-.79-2.21,0-4.42,0-6.62,0a2,2,0,0,0-1.18.52q-6.42,6.39-12.8,12.8c-.42.42-.88.81-1.48,1.36V57.94c0-1.15,0-1.15-1.12-1.15-3.14,0-6.28,0-9.43,0A7.44,7.44,0,0,1,0,49.28C0,35.36,0,21.45,0,7.53a7.23,7.23,0,0,1,4.62-7,8.25,8.25,0,0,1,3-.49C11.1,0,14.53,0,18,0H88.5a9.84,9.84,0,0,1,4.36.7,6.88,6.88,0,0,1,4.21,6.56c0,6.76,0,13.53,0,20.29,0,1.38,0,1.38,1.38,1.38,1.78,0,3.56.1,5.33,0a4.49,4.49,0,0,1,4.64,4.46c0,.14,0,.29,0,.43q0,14.53,0,29.08a4.67,4.67,0,0,1-4.94,4.89c-2.4,0-4.8,0-7.2,0-.56,0-.74.16-.73.73,0,2.64,0,5.28,0,7.92ZM20,67.35c.33-.28.49-.41.64-.56,3.58-3.58,7.17-7.15,10.73-10.75a3.08,3.08,0,0,1,2.36-1q20.91,0,41.82,0c4.73,0,9.45,0,14.18,0a5.51,5.51,0,0,0,3.12-.92,5.86,5.86,0,0,0,2.65-5.28V28.58q0-10.44,0-20.87a5.57,5.57,0,0,0-3.91-5.66,13.08,13.08,0,0,0-3.48-.38q-38.52,0-77,0c-1.47,0-2.93.06-4.39.1a3.53,3.53,0,0,0-.78.13A5.84,5.84,0,0,0,1.73,7.63V49.24a5.7,5.7,0,0,0,5.82,5.83c3.83,0,7.67,0,11.51,0,.68,0,.85.2.84.85,0,3.45,0,6.91,0,10.36C19.89,66.57,19.93,66.87,20,67.35Z"/><path class="cls-1" d="M74.25,36.65l3.41,2.71c-.79.7-1.47,1.36-2.22,2a.9.9,0,0,1-.8-.1c-1.08-.83-2.11-1.73-3.2-2.55a1.79,1.79,0,0,0-1.09-.35,8.47,8.47,0,0,1-7-2.42A8.92,8.92,0,0,1,61,30.57,17.5,17.5,0,0,1,61.24,24a8.33,8.33,0,0,1,14.89-2.72,9.34,9.34,0,0,1,1.6,5,30,30,0,0,1-.22,5,8.17,8.17,0,0,1-2.59,4.92A6,6,0,0,1,74.25,36.65Zm-.47-8.6c0-2.48-.31-3.93-1.13-5.26A4,4,0,0,0,66,22.68a7.33,7.33,0,0,0-1.13,3.8,13,13,0,0,0,.65,5.94A3.89,3.89,0,0,0,68.78,35a3.79,3.79,0,0,0,4-2A9.69,9.69,0,0,0,73.78,28.05Z"/><path class="cls-1" d="M53.87,38c-1.37,0-2.66,0-3.94,0-.15,0-.35-.29-.42-.49-.34-.94-.68-1.89-1-2.86a.9.9,0,0,0-1-.78c-2,0-3.94,0-5.9,0a.85.85,0,0,0-1,.71c-.28,1-.65,2-1,3-.07.19-.29.45-.45.45-1.26,0-2.52,0-3.9,0,.25-.74.43-1.36.66-2q2.57-6.84,5.14-13.7c.46-1.23.94-2.45,1.36-3.7.16-.46.37-.67.87-.65.83,0,1.68,0,2.52,0a.78.78,0,0,1,.83.61q2.22,6,4.48,12c.82,2.22,1.66,4.44,2.48,6.65C53.72,37.45,53.77,37.65,53.87,38ZM44.71,23.22l-.29.06L42,30.55h5.17Z"/><path class="cls-1" d="M16.92,28c0-3,0-6.09,0-9.14,0-.69.2-.89.89-.89q5.68,0,11.37,0c.58,0,.83.14.78.76a10.7,10.7,0,0,0,0,1.79c.05.6-.21.73-.75.73-2.39,0-4.79,0-7.19,0-1.12,0-1.12,0-1.12,1.1s0,2.3,0,3.45c0,.64.24.83.84.83,2.14,0,4.27,0,6.41,0,.59,0,.83.18.78.78a13,13,0,0,0,0,1.65c0,.59-.15.8-.76.79-2.16,0-4.32,0-6.48,0-.59,0-.8.19-.79.78,0,2.23,0,4.46,0,6.69,0,.56-.15.78-.73.76-.83,0-1.68,0-2.51,0-.57,0-.75-.2-.75-.76C16.93,34.16,16.92,31.07,16.92,28Z"/><path class="cls-1" d="M83.12,38.15A2,2,0,0,1,81,36.09a2,2,0,0,1,2.2-2,2.1,2.1,0,0,1,2.19,2.09A2.06,2.06,0,0,1,83.12,38.15Z"/><path class="cls-1" d="M30.77,38.15a1.91,1.91,0,0,1-2.11-2.07,2,2,0,0,1,2.18-2A2,2,0,0,1,33,36.15,2,2,0,0,1,30.77,38.15Z"/><path class="cls-1" d="M58.13,38.15A1.92,1.92,0,0,1,56,36.08a2,2,0,0,1,2.13-2,2,2,0,0,1,2.17,2.06A2,2,0,0,1,58.13,38.15Z"/></g></g></svg>