<svg xmlns="http://www.w3.org/2000/svg" viewBox="0 0 112.97 112.24"><defs><style>.cls-1{fill:#f15822;}</style></defs><title>Asset 90</title><g id="Layer_2" data-name="Layer 2"><g id="Layer_1-2" data-name="Layer 1"><path class="cls-1" d="M25.41,68.89a5.82,5.82,0,0,1,4.33-2.16,39.41,39.41,0,0,0,11.63-2.58A38.61,38.61,0,0,0,55.75,54.3a37.33,37.33,0,0,0,7.89-12.16c.76-2,1.24-4,1.81-6.08a25.24,25.24,0,0,0,.93-7.49,6.54,6.54,0,0,1,2.17-2.81,1,1,0,0,1,.65.27A5.29,5.29,0,0,1,71,29.27c.54,3.16,1.14,6.31,1.83,9.44a32,32,0,0,0,5.24,11.5,37.76,37.76,0,0,0,15.64,13,65.26,65.26,0,0,0,6.78,2.33,35.93,35.93,0,0,0,9,1.26,2.81,2.81,0,0,1,1.48.64A23.3,23.3,0,0,1,113,69.38c-1.48.75-2.83,1.67-4.56,1.74a38.06,38.06,0,0,0-17.63,5A40.67,40.67,0,0,0,75,92.67a29.88,29.88,0,0,0-3.25,9.41c-.36,2.27-.44,4.6-.94,6.84a7.05,7.05,0,0,1-1.78,3,1.38,1.38,0,0,1-2.24-.83c-.3-1.69-.43-3.39-.65-5.09a39.77,39.77,0,0,0-9.87-22.07A39.26,39.26,0,0,0,37.48,72.48a31,31,0,0,0-7.64-1.18A6.16,6.16,0,0,1,25.41,68.89Z"/><path class="cls-1" d="M25.06,0c1.58.86,1.85,2.22,2,3.64A22,22,0,0,0,33,16.57a19.74,19.74,0,0,0,10,5.94c1.88.41,3.79.64,5.7.93.77.11,1.54.3,1.78,1.12a1.45,1.45,0,0,1-1.08,1.83,32.35,32.35,0,0,1-4,1.09C38.29,28.9,32.76,32.42,29.5,39a29.43,29.43,0,0,0-2.42,7.92,14.89,14.89,0,0,1-1,3.26c-.44,1-1.28.95-1.88,0A9.88,9.88,0,0,1,23.09,46a21.89,21.89,0,0,0-3.77-9.76,18,18,0,0,0-9.48-6.93C7.43,28.62,5,27.92,2.6,27.22A5.36,5.36,0,0,1,0,25.27c1-1.78,2.72-1.83,4.38-2.12,5.2-.92,9.83-3,13.37-7a21.35,21.35,0,0,0,4.64-9.06c.39-1.59.51-3.27,1-4.83A8.71,8.71,0,0,1,25.06,0Z"/><path class="cls-1" d="M77.85,11.66a2.44,2.44,0,0,1,2-1.23c4.08-.7,7.19-2.71,8.19-7.2C88.33,2,88.5.93,89.58.15a4.24,4.24,0,0,1,1.48,2.9c.82,3.91,3.21,6.17,7.06,7.09,1.1.26,2.51.11,3.12,1.53A3.27,3.27,0,0,1,98.94,13c-4.28.79-6.73,2.63-7.85,7.16a4.9,4.9,0,0,1-.43,1.42,1.9,1.9,0,0,1-1.09.89c-.32.05-.75-.43-1.06-.75a1.31,1.31,0,0,1-.3-.77A8.92,8.92,0,0,0,80,13,2.54,2.54,0,0,1,77.85,11.66Z"/></g></g></svg>