<svg width="12" height="12" viewBox="0 0 12 12" fill="#828282" xmlns="http://www.w3.org/2000/svg"> <path d="M11.0481 7.61746C10.6504 7.26801 10.1681 6.96606 9.6145 6.72006C9.37784 6.61496 9.10089 6.72153 8.99579 6.9581C8.89069 7.19467 8.99725 7.47162 9.23383 7.57681C9.70065 7.78427 10.1029 8.03485 10.4293 8.32169C10.8317 8.67526 11.0625 9.18723 11.0625 9.72656V10.5938C11.0625 10.8522 10.8522 11.0625 10.5938 11.0625H1.40625C1.1478 11.0625 0.9375 10.8522 0.9375 10.5938V9.72656C0.9375 9.18723 1.1683 8.67526 1.57068 8.32169C2.04428 7.90549 3.42416 6.9375 6 6.9375C7.91263 6.9375 9.46875 5.38138 9.46875 3.46875C9.46875 1.55612 7.91263 0 6 0C4.08737 0 2.53125 1.55612 2.53125 3.46875C2.53125 4.58688 3.06317 5.58298 3.88715 6.21771C2.37946 6.54913 1.44159 7.18707 0.951874 7.61746C0.346985 8.14893 0 8.9176 0 9.72656V10.5938C0 11.3692 0.630798 12 1.40625 12H10.5938C11.3692 12 12 11.3692 12 10.5938V9.72656C12 8.9176 11.653 8.14893 11.0481 7.61746ZM3.46875 3.46875C3.46875 2.07303 4.60428 0.9375 6 0.9375C7.39572 0.9375 8.53125 2.07303 8.53125 3.46875C8.53125 4.86447 7.39572 6 6 6C4.60428 6 3.46875 4.86447 3.46875 3.46875Z" fill=""></path> </svg>