<svg fill="none" height="56" viewBox="0 0 56 56" width="56" xmlns="http://www.w3.org/2000/svg"> <circle cx="28" cy="28" fill="#F1EFF8" r="28"> </circle> <g clip-path="url(#clip0)"> <path d="M41.4153 18.5454C39.7396 16.8697 37.5213 15.9539 35.1537 15.9539C32.7861 15.9539 30.5609 16.8765 28.8853 18.5521L28.0102 19.4273L27.1215 18.5386C25.4458 16.8629 23.2139 15.9335 20.8463 15.9335C18.4855 15.9335 16.2604 16.8562 14.5915 18.525C12.9159 20.2006 11.9933 22.4258 12 24.7934C12 27.161 12.9294 29.3793 14.6051 31.055L27.3454 43.7952C27.5217 43.9716 27.7592 44.0666 27.9898 44.0666C28.2205 44.0666 28.4579 43.9784 28.6343 43.802L41.4017 31.0821C43.0774 29.4065 44 27.1813 44 24.8137C44.0068 22.4461 43.0909 20.221 41.4153 18.5454ZM40.1128 29.7864L27.9898 41.8618L15.894 29.766C14.5644 28.4364 13.8317 26.6725 13.8317 24.7934C13.8317 22.9142 14.5576 21.1504 15.8872 19.8275C17.2101 18.5047 18.9739 17.772 20.8463 17.772C22.7255 17.772 24.4961 18.5047 25.8257 19.8343L27.3589 21.3675C27.7185 21.727 28.2951 21.727 28.6547 21.3675L30.1743 19.8479C31.5039 18.5182 33.2745 17.7856 35.1469 17.7856C37.0193 17.7856 38.7831 18.5182 40.1128 19.8411C41.4424 21.1707 42.1683 22.9346 42.1683 24.8137C42.1751 26.6929 41.4424 28.4567 40.1128 29.7864Z" fill="#8F98BA"> </path> </g> <circle cx="28" cy="28" fill="#F1EFF8" r="28"> </circle> <path d="M45.9721 37.2345C45.9164 37.0302 45.7819 36.8563 45.5981 36.7511C39.604 33.3215 32.1525 34.6979 27.7304 39.6603C29.0167 32.603 35.0347 27.1761 42.365 26.7975C42.2626 28.8149 41.7808 30.7605 40.929 32.5921C40.743 32.9919 40.9165 33.4668 41.3163 33.6527C41.7161 33.8388 42.1909 33.6653 42.377 33.2654C43.4424 30.9745 43.9825 28.5227 43.9825 25.9779C43.9825 25.5369 43.6251 25.1795 43.1841 25.1795C33.6486 25.1795 25.8896 32.9325 25.8791 42.4657C25.8781 42.5071 25.8804 42.5491 25.8862 42.5911C25.8984 42.683 25.9263 42.7699 25.967 42.849C26.0229 42.9582 26.1022 43.0508 26.1968 43.122C26.2278 43.1454 26.2606 43.1666 26.2948 43.1853C28.5367 44.4649 30.9808 45.0725 33.3949 45.0725C38.3853 45.0725 43.2432 42.4735 45.8944 37.8405C45.9998 37.6568 46.0276 37.4388 45.9721 37.2345ZM28.9828 42.6848L34.0689 41.3009C34.4944 41.1851 34.7455 40.7463 34.6297 40.3208C34.5138 39.8954 34.0755 39.644 33.6496 39.7601L28.5634 41.144C32.27 36.6003 38.7154 35.1223 44.0761 37.7504C40.786 42.7324 34.4807 44.7239 28.9828 42.6848ZM24.2863 34.8283C23.7204 34.8673 23.1565 34.9239 22.5969 34.9976C22.2339 33.3834 21.9951 31.5941 21.893 29.7098C23.6107 29.8529 25.3564 29.9257 27.1103 29.9257C27.267 29.9257 27.4235 29.9251 27.5795 29.9239C28.0205 29.9205 28.3752 29.5603 28.3718 29.1194C28.3684 28.6785 28.0092 28.3201 27.5673 28.3271C27.4155 28.3283 27.263 28.3289 27.1103 28.3289C25.337 28.3289 23.5727 28.2526 21.8398 28.1029C21.8378 27.9376 21.8367 27.7718 21.8367 27.6055C21.8367 25.5649 21.9911 23.6759 22.2578 21.9881C23.5616 22.1578 24.8944 22.2441 26.2421 22.2441C27.876 22.2441 29.5018 22.1204 31.0784 21.8816C31.2584 22.9939 31.3903 24.2015 31.4614 25.4959C31.4855 25.9362 31.8639 26.2742 32.3023 26.2494C32.7427 26.2253 33.08 25.8487 33.0558 25.4084C32.9836 24.0923 32.8454 22.8136 32.6476 21.6025C34.7004 21.182 36.6403 20.5616 38.368 19.7617C38.37 19.7608 38.3719 19.7598 38.3739 19.7589C39.0345 20.7422 39.5775 21.8197 39.9795 22.9744C40.1245 23.3908 40.5795 23.6107 40.996 23.4661C41.4125 23.3211 41.6326 22.8659 41.4876 22.4496C39.2972 16.1562 33.3468 11.928 26.6795 11.9274C26.679 11.9274 26.6782 11.9274 26.6776 11.9274C18.033 11.9274 11 18.9606 11 27.6055C11 31.1723 12.1671 34.533 14.3752 37.3244C16.5168 40.0318 19.5302 41.9817 22.8604 42.8149C22.9254 42.8312 22.9906 42.8389 23.0548 42.8389C23.4125 42.8389 23.738 42.5968 23.8287 42.2341C23.9358 41.8064 23.6757 41.3728 23.248 41.2657C20.9192 40.6831 18.8511 39.5421 17.1714 38.0064C18.5076 37.4856 19.9356 37.081 21.4114 36.8033C21.5907 37.426 21.7894 38.0181 22.0068 38.5746C22.1672 38.9853 22.6301 39.1882 23.0409 39.0278C23.4517 38.8674 23.6546 38.4044 23.4942 37.9937C23.3167 37.5394 23.1526 37.0591 23.0023 36.5556C23.4643 36.4984 23.9293 36.4536 24.3961 36.4214C24.8359 36.391 25.168 36.0098 25.1376 35.5699C25.1075 35.13 24.7272 34.7977 24.2863 34.8283ZM37.3829 18.4547C35.8701 19.1228 34.1564 19.6537 32.3485 20.0256C32.0273 18.5527 31.6123 17.2137 31.1164 16.072C30.7261 15.1734 30.318 14.4612 29.9065 13.8992C32.8309 14.5885 35.4488 16.1963 37.3829 18.4547ZM26.6777 13.5243C28.1433 13.5243 29.8318 16.0208 30.7782 20.3049C29.2891 20.5293 27.7587 20.6471 26.2422 20.6471C24.9929 20.6471 23.7581 20.5692 22.5504 20.4159C23.4695 16.156 25.1332 13.5243 26.6777 13.5243ZM14.85 19.9721C16.6646 20.7657 18.6288 21.359 20.6835 21.74C20.3924 23.5769 20.2398 25.5621 20.2398 27.6055C20.2398 27.7182 20.2403 27.8308 20.2413 27.943C17.5888 27.641 15.0277 27.1647 12.6379 26.5243C12.8212 24.1233 13.6096 21.8878 14.85 19.9721ZM15.9746 36.7693C13.9649 34.4201 12.7356 31.4156 12.608 28.1677C15.0309 28.7951 17.6161 29.2606 20.2865 29.5546C20.384 31.5765 20.6329 33.5055 21.0189 35.2525C19.2521 35.5921 17.5481 36.1031 15.9746 36.7693ZM20.9737 20.1701C19.1635 19.8344 17.4302 19.3247 15.8193 18.6501C17.7491 16.3143 20.4164 14.609 23.4612 13.8949C22.898 14.657 22.3867 15.6313 21.9433 16.801C21.5577 17.8185 21.2329 18.9517 20.9737 20.1701Z" fill="#8F98BA"> </path> <defs> <clipPath id="clip0"> <rect fill="white" height="32" width="32" x="12" y="14"> </rect> </clipPath> </defs> </svg>