<svg width="9" height="12" viewBox="0 0 9 12" fill="#828282" xmlns="http://www.w3.org/2000/svg"> <path d="M4.34595 0C1.94958 0 0 1.94958 0 4.34593C0 7.31987 3.8892 11.6858 4.05479 11.8702C4.21032 12.0434 4.48186 12.0431 4.63712 11.8702C4.8027 11.6858 8.6919 7.31987 8.6919 4.34593C8.69185 1.94958 6.7423 0 4.34595 0ZM4.34595 11.0093C3.03703 9.45449 0.782626 6.38701 0.782626 4.34597C0.782626 2.38111 2.38111 0.782626 4.34595 0.782626C6.31079 0.782626 7.90928 2.38111 7.90928 4.34595C7.90925 6.38708 5.65519 9.454 4.34595 11.0093Z" fill=""></path> <path d="M4.34571 2.15942C3.14004 2.15942 2.15918 3.14031 2.15918 4.34598C2.15918 5.55165 3.14006 6.53254 4.34571 6.53254C5.55136 6.53254 6.53222 5.55165 6.53222 4.34598C6.53222 3.14031 5.55136 2.15942 4.34571 2.15942ZM4.34571 5.74991C3.57157 5.74991 2.9418 5.12012 2.9418 4.34598C2.9418 3.57184 3.57159 2.94205 4.34571 2.94205C5.11983 2.94205 5.74962 3.57184 5.74962 4.34598C5.74962 5.12012 5.11983 5.74991 4.34571 5.74991Z" fill=""></path> </svg>