<svg width="16" height="15" viewBox="0 0 16 15" fill="#828282" xmlns="http://www.w3.org/2000/svg"> <path d="M11.5932 5.70771C11.5599 5.62841 11.5191 5.55368 11.4717 5.48437H12.1836C12.8771 5.48437 13.4414 4.9201 13.4414 4.22656C13.4414 3.53301 12.8771 2.96875 12.1836 2.96875H9.99389C10.1331 2.76635 10.2148 2.52149 10.2148 2.25781C10.2148 1.56426 9.65056 1 8.95702 1H2.25781C1.56426 1 1 1.56426 1 2.25781C1 2.95136 1.56426 3.51562 2.25781 3.51562H4.44749C4.30829 3.71802 4.22656 3.96288 4.22656 4.22656C4.22656 4.49023 4.30826 4.73509 4.44749 4.93749H3.73437C3.04082 4.93749 2.47656 5.50176 2.47656 6.1953C2.47656 6.59362 2.66288 6.94906 2.95275 7.17968C2.66288 7.41029 2.47656 7.76573 2.47656 8.16405C2.47656 8.56236 2.66288 8.91781 2.95275 9.14842C2.66288 9.37904 2.47656 9.73448 2.47656 10.1328C2.47656 10.5311 2.66288 10.8866 2.95275 11.1172C2.66288 11.3478 2.47656 11.7032 2.47656 12.1015C2.47656 12.7951 3.04082 13.3594 3.73437 13.3594H6.95682C7.80574 14.2674 9.0134 14.8359 10.3516 14.8359C12.9147 14.8359 15 12.7507 15 10.1875C15 8.05424 13.5554 6.25226 11.5932 5.70771ZM12.1836 3.51562C12.5756 3.51562 12.8945 3.83456 12.8945 4.22656C12.8945 4.61856 12.5756 4.93749 12.1836 4.93749H10.4336H5.48437C5.09234 4.93749 4.77343 4.61856 4.77343 4.22656C4.77343 3.83456 5.09234 3.51562 5.48437 3.51562H12.1836ZM2.25781 2.96875C1.86578 2.96875 1.54687 2.64981 1.54687 2.25781C1.54687 1.86581 1.86578 1.54687 2.25781 1.54687H8.95702C9.34904 1.54687 9.66795 1.86581 9.66795 2.25781C9.66795 2.64981 9.34904 2.96875 8.95702 2.96875H2.25781ZM3.73437 5.48437H10.4336C10.5437 5.48437 10.6492 5.50996 10.7438 5.55579C10.6145 5.54493 10.4837 5.53908 10.3516 5.53908C9.06792 5.53908 7.90417 6.06214 7.06215 6.90624H3.73437C3.34237 6.90624 3.02343 6.5873 3.02343 6.1953C3.02343 5.8033 3.34237 5.48437 3.73437 5.48437ZM3.73437 7.45311H6.59493C6.28453 7.87839 6.04453 8.35805 5.89212 8.87498H3.73437C3.34234 8.87498 3.02343 8.55608 3.02343 8.16405C3.02343 7.77205 3.34234 7.45311 3.73437 7.45311ZM3.73437 9.42186H5.76655C5.72507 9.67104 5.70314 9.92673 5.70314 10.1875C5.70314 10.4103 5.71925 10.6293 5.74968 10.8437H3.73437C3.34234 10.8437 3.02343 10.5248 3.02343 10.1328C3.02343 9.74077 3.34234 9.42186 3.73437 9.42186ZM3.73437 12.8125C3.34234 12.8125 3.02343 12.4936 3.02343 12.1015C3.02343 11.7095 3.34234 11.3906 3.73437 11.3906H5.86133C5.9993 11.905 6.22344 12.3844 6.51738 12.8125H3.73437ZM10.3516 14.2891C8.08997 14.2891 6.25002 12.4491 6.25002 10.1875C6.25002 7.92591 8.08997 6.08596 10.3516 6.08596C12.6132 6.08596 14.4531 7.92591 14.4531 10.1875C14.4531 12.4491 12.6132 14.2891 10.3516 14.2891Z" fill="" stroke="white" stroke-width="0.3"></path> <path d="M12.0942 8.85974H11.7085V11.8334H11.0713L11.0371 11.5526C10.8613 11.7723 10.6351 11.8822 10.3584 11.8822C10.0475 11.8822 9.79769 11.7601 9.60889 11.516C9.42171 11.2702 9.32812 10.9292 9.32812 10.493C9.32812 10.0813 9.42008 9.7533 9.604 9.50916C9.78955 9.26501 10.0426 9.14294 10.3633 9.14294C10.6204 9.14294 10.8328 9.23897 11.0005 9.43103V8.85974H10.3853V8.41296H11.0005V8.08337H11.7085V8.41296H12.0942V8.85974ZM10.0337 10.5443C10.0337 10.7917 10.0768 10.9813 10.1631 11.1132C10.2493 11.245 10.3747 11.3109 10.5391 11.3109C10.7572 11.3109 10.911 11.219 11.0005 11.035V9.99255C10.9126 9.80863 10.7604 9.71667 10.5439 9.71667C10.2038 9.71667 10.0337 9.99255 10.0337 10.5443Z" fill=""></path> <path d="M9.16699 12.3217H12.3188V12.5658H9.16699V12.3217Z" fill="#828282"></path> </svg>